<?xml version="1.0" encoding="UTF-8" standalone="no"?>
<!DOCTYPE svg PUBLIC "-//W3C//DTD SVG 1.1//EN"
 "http://www.w3.org/Graphics/SVG/1.1/DTD/svg11.dtd">
<!-- Generated by graphviz version 2.43.0 (0)
 -->
<!-- Title: ERM Pages: 1 -->
<svg width="1823pt" height="591pt"
 viewBox="0.00 0.00 1823.21 591.00" xmlns="http://www.w3.org/2000/svg" xmlns:xlink="http://www.w3.org/1999/xlink">
<g id="graph0" class="graph" transform="scale(1 1) rotate(0) translate(4 587)">
<title>ERM</title>
<polygon fill="white" stroke="transparent" points="-4,4 -4,-587 1819.21,-587 1819.21,4 -4,4"/>
<!-- u_i_1 -->
<g id="node1" class="node">
<title>u_i_1</title>
<polygon fill="none" stroke="black" points="332.12,-323 271.29,-305 332.12,-287 392.95,-305 332.12,-323"/>
<text text-anchor="middle" x="332.12" y="-301.3" font-family="Times,serif" font-size="14.00">update</text>
</g>
<!-- Items -->
<g id="node13" class="node">
<title>Items</title>
<polygon fill="none" stroke="black" points="671.31,-347 614.31,-347 614.31,-311 671.31,-311 671.31,-347"/>
<text text-anchor="middle" x="642.81" y="-325.3" font-family="Times,serif" font-size="14.00">Items</text>
</g>
<!-- u_i_1&#45;&#45;Items -->
<g id="edge4" class="edge">
<title>u_i_1&#45;&#45;Items</title>
<path fill="none" stroke="black" d="M384.68,-307.6C433.76,-310.27 509.65,-314.89 575.31,-321 588.05,-322.19 602.12,-323.83 614.02,-325.32"/>
<text text-anchor="middle" x="501.78" y="-324.8" font-family="Times,serif" font-size="14.00">m</text>
</g>
<!-- u_i_2 -->
<g id="node2" class="node">
<title>u_i_2</title>
<polygon fill="none" stroke="black" points="332.12,-269 287.04,-251 332.12,-233 377.2,-251 332.12,-269"/>
<text text-anchor="middle" x="332.12" y="-247.3" font-family="Times,serif" font-size="14.00">read</text>
</g>
<!-- u_i_2&#45;&#45;Items -->
<g id="edge5" class="edge">
<title>u_i_2&#45;&#45;Items</title>
<path fill="none" stroke="black" d="M371.92,-253.17C420.65,-256.84 506.24,-266.46 575.31,-291 589.22,-295.94 603.57,-303.74 615.36,-310.99"/>
<text text-anchor="middle" x="501.78" y="-294.8" font-family="Times,serif" font-size="14.00">m</text>
</g>
<!-- u_i_3 -->
<g id="node3" class="node">
<title>u_i_3</title>
<polygon fill="none" stroke="black" points="332.12,-377 264.92,-359 332.12,-341 399.32,-359 332.12,-377"/>
<text text-anchor="middle" x="332.12" y="-355.3" font-family="Times,serif" font-size="14.00">manage</text>
</g>
<!-- u_i_3&#45;&#45;Items -->
<g id="edge6" class="edge">
<title>u_i_3&#45;&#45;Items</title>
<path fill="none" stroke="black" d="M382.76,-354.43C431.73,-349.9 508.7,-342.67 575.31,-336 588.02,-334.73 602.08,-333.26 613.99,-331.99"/>
<text text-anchor="middle" x="501.78" y="-352.8" font-family="Times,serif" font-size="14.00">n</text>
</g>
<!-- u_r_1 -->
<g id="node4" class="node">
<title>u_r_1</title>
<polygon fill="none" stroke="black" points="501.78,-169 428.21,-151 501.78,-133 575.34,-151 501.78,-169"/>
<text text-anchor="middle" x="501.78" y="-147.3" font-family="Times,serif" font-size="14.00">assigned</text>
</g>
<!-- Role -->
<g id="node17" class="node">
<title>Role</title>
<polygon fill="none" stroke="black" points="1701.52,-117 1647.52,-117 1647.52,-81 1701.52,-81 1701.52,-117"/>
<text text-anchor="middle" x="1674.52" y="-95.3" font-family="Times,serif" font-size="14.00">Role</text>
</g>
<!-- u_r_1&#45;&#45;Role -->
<g id="edge16" class="edge">
<title>u_r_1&#45;&#45;Role</title>
<path fill="none" stroke="black" d="M525.4,-138.69C563.58,-119.09 643.75,-83 716.31,-83 716.31,-83 716.31,-83 1525.91,-83 1568.7,-83 1618.06,-89.73 1647.48,-94.46"/>
<text text-anchor="middle" x="1149.38" y="-86.8" font-family="Times,serif" font-size="14.00">m</text>
</g>
<!-- i_t_1 -->
<g id="node5" class="node">
<title>i_t_1</title>
<polygon fill="none" stroke="black" points="815.84,-293 769.93,-275 815.84,-257 861.76,-275 815.84,-293"/>
<text text-anchor="middle" x="815.84" y="-271.3" font-family="Times,serif" font-size="14.00">have</text>
</g>
<!-- Tags -->
<g id="node16" class="node">
<title>Tags</title>
<polygon fill="none" stroke="black" points="1108.88,-313 1054.88,-313 1054.88,-277 1108.88,-277 1108.88,-313"/>
<text text-anchor="middle" x="1081.88" y="-291.3" font-family="Times,serif" font-size="14.00">Tags</text>
</g>
<!-- i_t_1&#45;&#45;Tags -->
<g id="edge8" class="edge">
<title>i_t_1&#45;&#45;Tags</title>
<path fill="none" stroke="black" d="M854.67,-277.87C909,-281.98 1007.73,-289.46 1054.7,-293.02"/>
<text text-anchor="middle" x="964.38" y="-293.8" font-family="Times,serif" font-size="14.00">n</text>
</g>
<!-- t_c_1 -->
<g id="node6" class="node">
<title>t_c_1</title>
<polygon fill="none" stroke="black" points="1220.33,-239 1174.42,-221 1220.33,-203 1266.25,-221 1220.33,-239"/>
<text text-anchor="middle" x="1220.33" y="-217.3" font-family="Times,serif" font-size="14.00">have</text>
</g>
<!-- Categories -->
<g id="node15" class="node">
<title>Categories</title>
<polygon fill="none" stroke="black" points="1406.29,-193 1312.29,-193 1312.29,-157 1406.29,-157 1406.29,-193"/>
<text text-anchor="middle" x="1359.29" y="-171.3" font-family="Times,serif" font-size="14.00">Categories</text>
</g>
<!-- t_c_1&#45;&#45;Categories -->
<g id="edge12" class="edge">
<title>t_c_1&#45;&#45;Categories</title>
<path fill="none" stroke="black" d="M1245.82,-212.78C1264.21,-206.6 1289.94,-197.96 1312.15,-190.5"/>
<text text-anchor="middle" x="1289.29" y="-202.8" font-family="Times,serif" font-size="14.00">n</text>
</g>
<!-- i_c_1 -->
<g id="node7" class="node">
<title>i_c_1</title>
<polygon fill="none" stroke="black" points="964.38,-237 907.38,-199 964.38,-161 1021.38,-199 964.38,-237"/>
<text text-anchor="middle" x="964.38" y="-202.8" font-family="Times,serif" font-size="14.00">must </text>
<text text-anchor="middle" x="964.38" y="-187.8" font-family="Times,serif" font-size="14.00"> have</text>
</g>
<!-- i_c_1&#45;&#45;Categories -->
<g id="edge10" class="edge">
<title>i_c_1&#45;&#45;Categories</title>
<path fill="none" stroke="black" d="M1016.74,-195.86C1093.81,-191.15 1238.19,-182.34 1312.11,-177.82"/>
<text text-anchor="middle" x="1149.38" y="-190.8" font-family="Times,serif" font-size="14.00">m</text>
</g>
<!-- u_l_1 -->
<g id="node8" class="node">
<title>u_l_1</title>
<polygon fill="none" stroke="black" points="815.84,-549 750.84,-511 815.84,-473 880.84,-511 815.84,-549"/>
<text text-anchor="middle" x="815.84" y="-514.8" font-family="Times,serif" font-size="14.00">has to </text>
<text text-anchor="middle" x="815.84" y="-499.8" font-family="Times,serif" font-size="14.00"> be</text>
</g>
<!-- Locations -->
<g id="node14" class="node">
<title>Locations</title>
<polygon fill="none" stroke="black" points="1124.38,-529 1039.38,-529 1039.38,-493 1124.38,-493 1124.38,-529"/>
<text text-anchor="middle" x="1081.88" y="-507.3" font-family="Times,serif" font-size="14.00">Locations</text>
</g>
<!-- u_l_1&#45;&#45;Locations -->
<g id="edge14" class="edge">
<title>u_l_1&#45;&#45;Locations</title>
<path fill="none" stroke="black" d="M881.1,-511C930.25,-511 996.59,-511 1039.07,-511"/>
<text text-anchor="middle" x="964.38" y="-514.8" font-family="Times,serif" font-size="14.00">1</text>
</g>
<!-- co_i_1 -->
<g id="node9" class="node">
<title>co_i_1</title>
<polygon fill="none" stroke="black" points="332.12,-215 253.86,-197 332.12,-179 410.37,-197 332.12,-215"/>
<text text-anchor="middle" x="332.12" y="-193.3" font-family="Times,serif" font-size="14.00">describes</text>
</g>
<!-- co_i_1&#45;&#45;Items -->
<g id="edge17" class="edge">
<title>co_i_1&#45;&#45;Items</title>
<path fill="none" stroke="black" d="M378.94,-204.24C446.81,-215.1 567,-234.87 575.31,-240 602.9,-257 622.92,-290.02 633.42,-310.71"/>
<text text-anchor="middle" x="501.78" y="-243.8" font-family="Times,serif" font-size="14.00">n</text>
</g>
<!-- Description -->
<g id="node18" class="node">
<title>Description</title>
<polygon fill="none" stroke="black" points="692.31,-201 593.31,-201 593.31,-165 692.31,-165 692.31,-201"/>
<text text-anchor="middle" x="642.81" y="-179.3" font-family="Times,serif" font-size="14.00">Description</text>
</g>
<!-- co_i_1&#45;&#45;Description -->
<g id="edge18" class="edge">
<title>co_i_1&#45;&#45;Description</title>
<path fill="none" stroke="black" d="M397.83,-194.07C456,-191.43 540.15,-187.61 592.88,-185.22"/>
<text text-anchor="middle" x="501.78" y="-195.8" font-family="Times,serif" font-size="14.00">1</text>
</g>
<!-- Contains -->
<g id="node10" class="node">
<title>Contains</title>
<polygon fill="none" stroke="orange" points="815.84,-347 742.28,-329 815.84,-311 889.41,-329 815.84,-347"/>
<text text-anchor="middle" x="815.84" y="-325.3" font-family="Times,serif" font-size="14.00">Contains</text>
</g>
<!-- Contains&#45;&#45;Items -->
<g id="edge20" class="edge">
<title>Contains&#45;&#45;Items</title>
<path fill="none" stroke="black" d="M767.27,-335.12C736.5,-336.21 697.51,-335.88 671.67,-334.14"/>
</g>
<!-- c_r_1 -->
<g id="node11" class="node">
<title>c_r_1</title>
<polygon fill="none" stroke="black" points="1524.91,-171 1452.18,-153 1524.91,-135 1597.63,-153 1524.91,-171"/>
<text text-anchor="middle" x="1524.91" y="-149.3" font-family="Times,serif" font-size="14.00">accesses</text>
</g>
<!-- c_r_1&#45;&#45;Role -->
<g id="edge22" class="edge">
<title>c_r_1&#45;&#45;Role</title>
<path fill="none" stroke="black" d="M1555.07,-142.33C1581.96,-132.5 1621.5,-118.03 1647.38,-108.56"/>
<text text-anchor="middle" x="1622.52" y="-123.8" font-family="Times,serif" font-size="14.00">m</text>
</g>
<!-- User -->
<g id="node12" class="node">
<title>User</title>
<polygon fill="none" stroke="black" points="207.99,-296 153.99,-296 153.99,-260 207.99,-260 207.99,-296"/>
<text text-anchor="middle" x="180.99" y="-274.3" font-family="Times,serif" font-size="14.00">User</text>
</g>
<!-- User&#45;&#45;u_i_1 -->
<g id="edge1" class="edge">
<title>User&#45;&#45;u_i_1</title>
<path fill="none" stroke="black" d="M208.31,-282.76C232.05,-287.06 267.24,-293.44 293.87,-298.26"/>
<text text-anchor="middle" x="230.99" y="-290.8" font-family="Times,serif" font-size="14.00">n</text>
</g>
<!-- User&#45;&#45;u_i_2 -->
<g id="edge2" class="edge">
<title>User&#45;&#45;u_i_2</title>
<path fill="none" stroke="black" d="M208.39,-270.23C214.15,-268.69 220.25,-267.19 225.99,-266 249.28,-261.18 275.79,-257.41 296.37,-254.85"/>
<text text-anchor="middle" x="230.99" y="-269.8" font-family="Times,serif" font-size="14.00">n</text>
</g>
<!-- User&#45;&#45;u_i_3 -->
<g id="edge3" class="edge">
<title>User&#45;&#45;u_i_3</title>
<path fill="none" stroke="black" d="M202.57,-296.13C216.37,-307.6 235.38,-322.07 253.99,-332 267.88,-339.41 284.23,-345.47 298.29,-349.96"/>
<text text-anchor="middle" x="230.99" y="-323.8" font-family="Times,serif" font-size="14.00">1</text>
</g>
<!-- User&#45;&#45;u_r_1 -->
<g id="edge15" class="edge">
<title>User&#45;&#45;u_r_1</title>
<path fill="none" stroke="black" d="M188.33,-259.68C198.09,-234.57 219.38,-190.27 253.99,-170 317.4,-132.86 406.21,-136.86 458.2,-143.61"/>
<text text-anchor="middle" x="230.99" y="-195.8" font-family="Times,serif" font-size="14.00">n</text>
</g>
<!-- Items&#45;&#45;i_t_1 -->
<g id="edge7" class="edge">
<title>Items&#45;&#45;i_t_1</title>
<path fill="none" stroke="black" d="M671.67,-320.2C704.42,-309.86 758.29,-292.85 789.78,-282.91"/>
<text text-anchor="middle" x="717.31" y="-309.8" font-family="Times,serif" font-size="14.00">m</text>
</g>
<!-- Items&#45;&#45;i_c_1 -->
<g id="edge9" class="edge">
<title>Items&#45;&#45;i_c_1</title>
<path fill="none" stroke="black" d="M660.52,-310.95C678.8,-292.32 709.87,-263.8 742.31,-248 772.88,-233.11 863.09,-215.97 918.37,-206.42"/>
<text text-anchor="middle" x="717.31" y="-270.8" font-family="Times,serif" font-size="14.00">n</text>
</g>
<!-- Items&#45;&#45;u_l_1 -->
<g id="edge13" class="edge">
<title>Items&#45;&#45;u_l_1</title>
<path fill="none" stroke="black" d="M654.13,-347.22C670.35,-374.79 703.95,-427.71 742.31,-464 753.97,-475.03 768.56,-485.06 781.59,-492.98"/>
<text text-anchor="middle" x="717.31" y="-447.8" font-family="Times,serif" font-size="14.00">n</text>
</g>
<!-- Items&#45;&#45;Contains -->
<g id="edge19" class="edge">
<title>Items&#45;&#45;Contains</title>
<path fill="none" stroke="black" d="M671.67,-323.86C697.51,-322.12 736.5,-321.79 767.27,-322.88"/>
</g>
<!-- i_id -->
<g id="node25" class="node">
<title>i_id</title>
<ellipse fill="none" stroke="black" cx="815.84" cy="-437" rx="27" ry="18"/>
<text text-anchor="middle" x="815.84" y="-433.3" font-family="Times,serif" font-size="14.00">ID</text>
</g>
<!-- Items&#45;&#45;i_id -->
<g id="edge29" class="edge">
<title>Items&#45;&#45;i_id</title>
<path fill="none" stroke="black" d="M662.03,-347.17C680.81,-365.11 711.61,-392.33 742.31,-410 757.57,-418.78 776.2,-425.65 790.76,-430.26"/>
</g>
<!-- i_name -->
<g id="node26" class="node">
<title>i_name</title>
<ellipse fill="none" stroke="black" cx="815.84" cy="-383" rx="38.19" ry="18"/>
<text text-anchor="middle" x="815.84" y="-379.3" font-family="Times,serif" font-size="14.00">Name</text>
</g>
<!-- Items&#45;&#45;i_name -->
<g id="edge30" class="edge">
<title>Items&#45;&#45;i_name</title>
<path fill="none" stroke="black" d="M671.54,-338.9C683.44,-343.07 697.52,-347.89 710.31,-352 734.46,-359.75 761.97,-367.88 782.71,-373.87"/>
</g>
<!-- lo_id -->
<g id="node33" class="node">
<title>lo_id</title>
<ellipse fill="none" stroke="black" cx="1220.33" cy="-457" rx="27" ry="18"/>
<text text-anchor="middle" x="1220.33" y="-453.3" font-family="Times,serif" font-size="14.00">ID</text>
</g>
<!-- Locations&#45;&#45;lo_id -->
<g id="edge37" class="edge">
<title>Locations&#45;&#45;lo_id</title>
<path fill="none" stroke="black" d="M1124.56,-494.5C1148.23,-485.14 1176.95,-473.77 1196.53,-466.03"/>
</g>
<!-- lo_Room -->
<g id="node34" class="node">
<title>lo_Room</title>
<ellipse fill="none" stroke="black" cx="1220.33" cy="-565" rx="37.09" ry="18"/>
<text text-anchor="middle" x="1220.33" y="-561.3" font-family="Times,serif" font-size="14.00">Room</text>
</g>
<!-- Locations&#45;&#45;lo_Room -->
<g id="edge39" class="edge">
<title>Locations&#45;&#45;lo_Room</title>
<path fill="none" stroke="black" d="M1124.56,-527.5C1146.04,-535.99 1171.67,-546.14 1190.86,-553.73"/>
</g>
<!-- lo_House -->
<g id="node35" class="node">
<title>lo_House</title>
<ellipse fill="none" stroke="black" cx="1220.33" cy="-511" rx="40.09" ry="18"/>
<text text-anchor="middle" x="1220.33" y="-507.3" font-family="Times,serif" font-size="14.00">House</text>
</g>
<!-- Locations&#45;&#45;lo_House -->
<g id="edge38" class="edge">
<title>Locations&#45;&#45;lo_House</title>
<path fill="none" stroke="black" d="M1124.56,-511C1142.12,-511 1162.45,-511 1179.77,-511"/>
</g>
<!-- Categories&#45;&#45;c_r_1 -->
<g id="edge21" class="edge">
<title>Categories&#45;&#45;c_r_1</title>
<path fill="none" stroke="black" d="M1406.3,-168.81C1428.51,-165.83 1455.11,-162.25 1477.39,-159.25"/>
<text text-anchor="middle" x="1429.29" y="-168.8" font-family="Times,serif" font-size="14.00">n</text>
</g>
<!-- Tags&#45;&#45;t_c_1 -->
<g id="edge11" class="edge">
<title>Tags&#45;&#45;t_c_1</title>
<path fill="none" stroke="black" d="M1109.19,-280.73C1135.83,-266.28 1176.39,-244.29 1200.14,-231.41"/>
<text text-anchor="middle" x="1149.38" y="-265.8" font-family="Times,serif" font-size="14.00">m</text>
</g>
<!-- t_id -->
<g id="node27" class="node">
<title>t_id</title>
<ellipse fill="none" stroke="black" cx="1220.33" cy="-383" rx="27" ry="18"/>
<text text-anchor="middle" x="1220.33" y="-379.3" font-family="Times,serif" font-size="14.00">ID</text>
</g>
<!-- Tags&#45;&#45;t_id -->
<g id="edge31" class="edge">
<title>Tags&#45;&#45;t_id</title>
<path fill="none" stroke="black" d="M1109.09,-312.95C1127.27,-325.28 1152.12,-341.91 1174.38,-356 1182.53,-361.16 1191.64,-366.68 1199.52,-371.37"/>
</g>
<!-- t_label -->
<g id="node28" class="node">
<title>t_label</title>
<ellipse fill="none" stroke="black" cx="1220.33" cy="-329" rx="36.29" ry="18"/>
<text text-anchor="middle" x="1220.33" y="-325.3" font-family="Times,serif" font-size="14.00">Label</text>
</g>
<!-- Tags&#45;&#45;t_label -->
<g id="edge32" class="edge">
<title>Tags&#45;&#45;t_label</title>
<path fill="none" stroke="black" d="M1109.19,-301.56C1131.49,-307.11 1163.56,-315.1 1187.34,-321.03"/>
</g>
<!-- Read -->
<g id="node36" class="node">
<title>Read</title>
<ellipse fill="none" stroke="black" cx="1776.87" cy="-180" rx="34.39" ry="18"/>
<text text-anchor="middle" x="1776.87" y="-176.3" font-family="Times,serif" font-size="14.00">Read</text>
</g>
<!-- Role&#45;&#45;Read -->
<g id="edge40" class="edge">
<title>Role&#45;&#45;Read</title>
<path fill="none" stroke="black" d="M1695.87,-117.19C1708.04,-127.88 1723.92,-141.5 1738.52,-153 1743.92,-157.26 1749.91,-161.7 1755.48,-165.73"/>
</g>
<!-- Write -->
<g id="node37" class="node">
<title>Write</title>
<ellipse fill="none" stroke="black" cx="1776.87" cy="-126" rx="36.29" ry="18"/>
<text text-anchor="middle" x="1776.87" y="-122.3" font-family="Times,serif" font-size="14.00">Write</text>
</g>
<!-- Role&#45;&#45;Write -->
<g id="edge41" class="edge">
<title>Role&#45;&#45;Write</title>
<path fill="none" stroke="black" d="M1701.62,-106.02C1714.75,-109.55 1730.75,-113.86 1744.53,-117.57"/>
</g>
<!-- ID -->
<g id="node38" class="node">
<title>ID</title>
<ellipse fill="none" stroke="black" cx="1776.87" cy="-72" rx="27" ry="18"/>
<text text-anchor="middle" x="1776.87" y="-68.3" font-family="Times,serif" font-size="14.00">ID</text>
</g>
<!-- Role&#45;&#45;ID -->
<g id="edge42" class="edge">
<title>Role&#45;&#45;ID</title>
<path fill="none" stroke="black" d="M1701.62,-91.98C1717.07,-87.82 1736.5,-82.59 1751.62,-78.52"/>
</g>
<!-- Name -->
<g id="node39" class="node">
<title>Name</title>
<ellipse fill="none" stroke="black" cx="1776.87" cy="-18" rx="38.19" ry="18"/>
<text text-anchor="middle" x="1776.87" y="-14.3" font-family="Times,serif" font-size="14.00">Name</text>
</g>
<!-- Role&#45;&#45;Name -->
<g id="edge43" class="edge">
<title>Role&#45;&#45;Name</title>
<path fill="none" stroke="black" d="M1695.87,-80.81C1708.04,-70.12 1723.92,-56.5 1738.52,-45 1743.67,-40.94 1749.36,-36.71 1754.7,-32.84"/>
</g>
<!-- d_id -->
<g id="node31" class="node">
<title>d_id</title>
<ellipse fill="none" stroke="black" cx="815.84" cy="-129" rx="27" ry="18"/>
<text text-anchor="middle" x="815.84" y="-125.3" font-family="Times,serif" font-size="14.00">ID</text>
</g>
<!-- Description&#45;&#45;d_id -->
<g id="edge35" class="edge">
<title>Description&#45;&#45;d_id</title>
<path fill="none" stroke="black" d="M692.37,-167.67C724.56,-157.51 765.41,-144.61 790.84,-136.58"/>
</g>
<!-- d_text -->
<g id="node32" class="node">
<title>d_text</title>
<ellipse fill="none" stroke="black" cx="815.84" cy="-183" rx="30.59" ry="18"/>
<text text-anchor="middle" x="815.84" y="-179.3" font-family="Times,serif" font-size="14.00">Text</text>
</g>
<!-- Description&#45;&#45;d_text -->
<g id="edge36" class="edge">
<title>Description&#45;&#45;d_text</title>
<path fill="none" stroke="black" d="M692.37,-183C722.29,-183 759.69,-183 785.24,-183"/>
</g>
<!-- u_Email -->
<g id="node19" class="node">
<title>u_Email</title>
<ellipse fill="none" stroke="black" cx="58.49" cy="-413" rx="37.89" ry="18"/>
<text text-anchor="middle" x="58.49" y="-409.3" font-family="Times,serif" font-size="14.00">Email</text>
</g>
<!-- u_Email&#45;&#45;User -->
<g id="edge24" class="edge">
<title>u_Email&#45;&#45;User</title>
<path fill="none" stroke="black" d="M89.94,-402.78C99.35,-398.61 109.26,-393.07 116.99,-386 144.86,-360.51 163.95,-319.78 173.32,-296.3"/>
</g>
<!-- u_userName -->
<g id="node20" class="node">
<title>u_userName</title>
<ellipse fill="none" stroke="black" cx="58.49" cy="-359" rx="58.49" ry="18"/>
<text text-anchor="middle" x="58.49" y="-355.3" font-family="Times,serif" font-size="14.00">Username</text>
</g>
<!-- u_userName&#45;&#45;User -->
<g id="edge27" class="edge">
<title>u_userName&#45;&#45;User</title>
<path fill="none" stroke="black" d="M94.05,-344.62C101.82,-340.89 109.86,-336.61 116.99,-332 133.08,-321.6 149.46,-307.43 161.48,-296.22"/>
</g>
<!-- u_firstName -->
<g id="node21" class="node">
<title>u_firstName</title>
<ellipse fill="none" stroke="black" cx="58.49" cy="-305" rx="58.49" ry="18"/>
<text text-anchor="middle" x="58.49" y="-301.3" font-family="Times,serif" font-size="14.00">Firstname</text>
</g>
<!-- u_firstName&#45;&#45;User -->
<g id="edge25" class="edge">
<title>u_firstName&#45;&#45;User</title>
<path fill="none" stroke="black" d="M106.43,-294.48C122.55,-290.87 140.01,-286.96 153.88,-283.85"/>
</g>
<!-- u_lastName -->
<g id="node22" class="node">
<title>u_lastName</title>
<ellipse fill="none" stroke="black" cx="58.49" cy="-251" rx="55.79" ry="18"/>
<text text-anchor="middle" x="58.49" y="-247.3" font-family="Times,serif" font-size="14.00">Lastname</text>
</g>
<!-- u_lastName&#45;&#45;User -->
<g id="edge26" class="edge">
<title>u_lastName&#45;&#45;User</title>
<path fill="none" stroke="black" d="M104.71,-261.13C121.27,-264.84 139.45,-268.92 153.79,-272.13"/>
</g>
<!-- u_hash -->
<g id="node23" class="node">
<title>u_hash</title>
<ellipse fill="none" stroke="black" cx="58.49" cy="-197" rx="34.39" ry="18"/>
<text text-anchor="middle" x="58.49" y="-193.3" font-family="Times,serif" font-size="14.00">Hash</text>
</g>
<!-- u_hash&#45;&#45;User -->
<g id="edge23" class="edge">
<title>u_hash&#45;&#45;User</title>
<path fill="none" stroke="black" d="M86.34,-207.8C96.28,-212.26 107.45,-217.83 116.99,-224 133.08,-234.4 149.46,-248.57 161.48,-259.78"/>
</g>
<!-- u_id -->
<g id="node24" class="node">
<title>u_id</title>
<ellipse fill="none" stroke="black" cx="58.49" cy="-143" rx="27" ry="18"/>
<text text-anchor="middle" x="58.49" y="-139.3" font-family="Times,serif" font-size="14.00">ID</text>
</g>
<!-- u_id&#45;&#45;User -->
<g id="edge28" class="edge">
<title>u_id&#45;&#45;User</title>
<path fill="none" stroke="black" d="M83.23,-150.42C94.42,-154.79 107.39,-161.22 116.99,-170 144.86,-195.49 163.95,-236.22 173.32,-259.7"/>
</g>
<!-- c_name -->
<g id="node29" class="node">
<title>c_name</title>
<ellipse fill="none" stroke="black" cx="1220.33" cy="-129" rx="38.19" ry="18"/>
<text text-anchor="middle" x="1220.33" y="-125.3" font-family="Times,serif" font-size="14.00">Name</text>
</g>
<!-- c_name&#45;&#45;Categories -->
<g id="edge33" class="edge">
<title>c_name&#45;&#45;Categories</title>
<path fill="none" stroke="black" d="M1252.07,-139.32C1269.74,-145.26 1292.28,-152.83 1312.04,-159.47"/>
</g>
<!-- c_id -->
<g id="node30" class="node">
<title>c_id</title>
<ellipse fill="none" stroke="black" cx="1220.33" cy="-275" rx="27" ry="18"/>
<text text-anchor="middle" x="1220.33" y="-271.3" font-family="Times,serif" font-size="14.00">ID</text>
</g>
<!-- c_id&#45;&#45;Categories -->
<g id="edge34" class="edge">
<title>c_id&#45;&#45;Categories</title>
<path fill="none" stroke="black" d="M1241.38,-263.71C1249.29,-259.07 1258.36,-253.5 1266.29,-248 1291.43,-230.58 1318.7,-208.52 1336.97,-193.23"/>
</g>
</g>
</svg>
