<?xml version="1.0" encoding="UTF-8" standalone="no"?>
<!DOCTYPE svg PUBLIC "-//W3C//DTD SVG 1.1//EN"
 "http://www.w3.org/Graphics/SVG/1.1/DTD/svg11.dtd">
<!-- Generated by graphviz version 2.40.1 (20161225.0304)
 -->
<!-- Title: ERM Pages: 1 -->
<svg width="1802pt" height="571pt"
 viewBox="0.00 0.00 1801.75 571.00" xmlns="http://www.w3.org/2000/svg" xmlns:xlink="http://www.w3.org/1999/xlink">
<g id="graph0" class="graph" transform="scale(1 1) rotate(0) translate(4 567)">
<title>ERM</title>
<polygon fill="#ffffff" stroke="transparent" points="-4,4 -4,-567 1797.7515,-567 1797.7515,4 -4,4"/>
<!-- u_i_1 -->
<g id="node1" class="node">
<title>u_i_1</title>
<polygon fill="none" stroke="#000000" points="289.1752,-311 240.2436,-293 289.1752,-275 338.1069,-293 289.1752,-311"/>
<text text-anchor="middle" x="289.1752" y="-289.3" font-family="Times,serif" font-size="14.00" fill="#000000">update</text>
</g>
<!-- Items -->
<g id="node12" class="node">
<title>Items</title>
<polygon fill="none" stroke="#000000" points="569.5726,-314 515.5726,-314 515.5726,-278 569.5726,-278 569.5726,-314"/>
<text text-anchor="middle" x="542.5726" y="-292.3" font-family="Times,serif" font-size="14.00" fill="#000000">Items</text>
</g>
<!-- u_i_1&#45;&#45;Items -->
<g id="edge4" class="edge">
<title>u_i_1&#45;&#45;Items</title>
<path fill="none" stroke="#000000" d="M336.8373,-293.5643C389.5958,-294.1889 472.7971,-295.1739 515.4246,-295.6786"/>
<text text-anchor="middle" x="426.6657" y="-298.8" font-family="Times,serif" font-size="14.00" fill="#000000">m</text>
</g>
<!-- u_i_2 -->
<g id="node2" class="node">
<title>u_i_2</title>
<polygon fill="none" stroke="#000000" points="289.1752,-257 252.6412,-239 289.1752,-221 325.7093,-239 289.1752,-257"/>
<text text-anchor="middle" x="289.1752" y="-235.3" font-family="Times,serif" font-size="14.00" fill="#000000">read</text>
</g>
<!-- u_i_2&#45;&#45;Items -->
<g id="edge5" class="edge">
<title>u_i_2&#45;&#45;Items</title>
<path fill="none" stroke="#000000" d="M318.6862,-242.5512C357.279,-247.5882 426.7777,-258.0114 484.5726,-274 494.8484,-276.8427 505.8505,-280.7769 515.4804,-284.5333"/>
<text text-anchor="middle" x="426.6657" y="-277.8" font-family="Times,serif" font-size="14.00" fill="#000000">m</text>
</g>
<!-- u_i_3 -->
<g id="node3" class="node">
<title>u_i_3</title>
<polygon fill="none" stroke="#000000" points="289.1752,-365 234.7137,-347 289.1752,-329 343.6368,-347 289.1752,-365"/>
<text text-anchor="middle" x="289.1752" y="-343.3" font-family="Times,serif" font-size="14.00" fill="#000000">manage</text>
</g>
<!-- u_i_3&#45;&#45;Items -->
<g id="edge6" class="edge">
<title>u_i_3&#45;&#45;Items</title>
<path fill="none" stroke="#000000" d="M328.4113,-341.9458C368.0875,-336.4678 431.0286,-326.7696 484.5726,-314 494.7256,-311.5786 505.6999,-308.3381 515.3418,-305.2741"/>
<text text-anchor="middle" x="426.6657" y="-339.8" font-family="Times,serif" font-size="14.00" fill="#000000">n</text>
</g>
<!-- u_r_1 -->
<g id="node4" class="node">
<title>u_r_1</title>
<polygon fill="none" stroke="#000000" points="426.6657,-157 368.8517,-139 426.6657,-121 484.4796,-139 426.6657,-157"/>
<text text-anchor="middle" x="426.6657" y="-135.3" font-family="Times,serif" font-size="14.00" fill="#000000">assigned</text>
</g>
<!-- Role -->
<g id="node16" class="node">
<title>Role</title>
<polygon fill="none" stroke="#000000" points="1691.7573,-117 1637.7573,-117 1637.7573,-81 1691.7573,-81 1691.7573,-117"/>
<text text-anchor="middle" x="1664.7573" y="-95.3" font-family="Times,serif" font-size="14.00" fill="#000000">Role</text>
</g>
<!-- u_r_1&#45;&#45;Role -->
<g id="edge16" class="edge">
<title>u_r_1&#45;&#45;Role</title>
<path fill="none" stroke="#000000" d="M448.1486,-127.6676C481.2227,-111.3042 547.0368,-83 606.5726,-83 606.5726,-83 606.5726,-83 1532.7695,-83 1569.2396,-83 1610.9687,-89.0947 1637.5731,-93.761"/>
<text text-anchor="middle" x="1214.5726" y="-86.8" font-family="Times,serif" font-size="14.00" fill="#000000">m</text>
</g>
<!-- i_t_1 -->
<g id="node5" class="node">
<title>i_t_1</title>
<polygon fill="none" stroke="#000000" points="683.5726,-302 644.8631,-284 683.5726,-266 722.2821,-284 683.5726,-302"/>
<text text-anchor="middle" x="683.5726" y="-280.3" font-family="Times,serif" font-size="14.00" fill="#000000">have</text>
</g>
<!-- Tags -->
<g id="node15" class="node">
<title>Tags</title>
<polygon fill="none" stroke="#000000" points="1182.5726,-337 1128.5726,-337 1128.5726,-301 1182.5726,-301 1182.5726,-337"/>
<text text-anchor="middle" x="1155.5726" y="-315.3" font-family="Times,serif" font-size="14.00" fill="#000000">Tags</text>
</g>
<!-- i_t_1&#45;&#45;Tags -->
<g id="edge8" class="edge">
<title>i_t_1&#45;&#45;Tags</title>
<path fill="none" stroke="#000000" d="M717.1393,-286.4891C806.2276,-293.0952 1047.3684,-310.9764 1128.5106,-316.9933"/>
<text text-anchor="middle" x="928.5726" y="-317.8" font-family="Times,serif" font-size="14.00" fill="#000000">n</text>
</g>
<!-- t_c_1 -->
<g id="node6" class="node">
<title>t_c_1</title>
<polygon fill="none" stroke="#000000" points="1277.1772,-239 1238.4677,-221 1277.1772,-203 1315.8867,-221 1277.1772,-239"/>
<text text-anchor="middle" x="1277.1772" y="-217.3" font-family="Times,serif" font-size="14.00" fill="#000000">have</text>
</g>
<!-- Categories -->
<g id="node14" class="node">
<title>Categories</title>
<polygon fill="none" stroke="#000000" points="1432.7818,-193 1358.7818,-193 1358.7818,-157 1432.7818,-157 1432.7818,-193"/>
<text text-anchor="middle" x="1395.7818" y="-171.3" font-family="Times,serif" font-size="14.00" fill="#000000">Categories</text>
</g>
<!-- t_c_1&#45;&#45;Categories -->
<g id="edge12" class="edge">
<title>t_c_1&#45;&#45;Categories</title>
<path fill="none" stroke="#000000" d="M1298.3813,-212.7761C1315.039,-206.3156 1338.6515,-197.1576 1358.4555,-189.4768"/>
<text text-anchor="middle" x="1337.2818" y="-201.8" font-family="Times,serif" font-size="14.00" fill="#000000">n</text>
</g>
<!-- i_c_1 -->
<g id="node7" class="node">
<title>i_c_1</title>
<polygon fill="none" stroke="#000000" points="928.5726,-246 754.5726,-208 928.5726,-170 1102.5726,-208 928.5726,-246"/>
<text text-anchor="middle" x="928.5726" y="-211.8" font-family="Times,serif" font-size="14.00" fill="#000000">must </text>
<text text-anchor="middle" x="928.5726" y="-196.8" font-family="Times,serif" font-size="14.00" fill="#000000"> have tag*s from categorie*s</text>
</g>
<!-- i_c_1&#45;&#45;Categories -->
<g id="edge10" class="edge">
<title>i_c_1&#45;&#45;Categories</title>
<path fill="none" stroke="#000000" d="M1060.2711,-198.6979C1161.6078,-191.5402 1294.7664,-182.1349 1358.5643,-177.6288"/>
<text text-anchor="middle" x="1214.5726" y="-190.8" font-family="Times,serif" font-size="14.00" fill="#000000">m</text>
</g>
<!-- u_l_1 -->
<g id="node8" class="node">
<title>u_l_1</title>
<polygon fill="none" stroke="#000000" points="683.5726,-505 630.5726,-467 683.5726,-429 736.5726,-467 683.5726,-505"/>
<text text-anchor="middle" x="683.5726" y="-470.8" font-family="Times,serif" font-size="14.00" fill="#000000">has to </text>
<text text-anchor="middle" x="683.5726" y="-455.8" font-family="Times,serif" font-size="14.00" fill="#000000"> be</text>
</g>
<!-- Locations -->
<g id="node13" class="node">
<title>Locations</title>
<polygon fill="none" stroke="#000000" points="1190.5726,-508 1120.5726,-508 1120.5726,-472 1190.5726,-472 1190.5726,-508"/>
<text text-anchor="middle" x="1155.5726" y="-486.3" font-family="Times,serif" font-size="14.00" fill="#000000">Locations</text>
</g>
<!-- u_l_1&#45;&#45;Locations -->
<g id="edge14" class="edge">
<title>u_l_1&#45;&#45;Locations</title>
<path fill="none" stroke="#000000" d="M733.638,-469.4396C829.6079,-474.1161 1037.2933,-484.2364 1120.2742,-488.28"/>
<text text-anchor="middle" x="928.5726" y="-490.8" font-family="Times,serif" font-size="14.00" fill="#000000">1</text>
</g>
<!-- co_i_1 -->
<g id="node9" class="node">
<title>co_i_1</title>
<polygon fill="none" stroke="#000000" points="289.1752,-203 227.508,-185 289.1752,-167 350.8424,-185 289.1752,-203"/>
<text text-anchor="middle" x="289.1752" y="-181.3" font-family="Times,serif" font-size="14.00" fill="#000000">describes</text>
</g>
<!-- co_i_1&#45;&#45;Items -->
<g id="edge17" class="edge">
<title>co_i_1&#45;&#45;Items</title>
<path fill="none" stroke="#000000" d="M329.7496,-191.3282C379.0349,-199.5301 458.7908,-214.6125 484.5726,-230 504.3514,-241.8047 520.9765,-262.6459 531.2869,-277.7564"/>
<text text-anchor="middle" x="426.6657" y="-233.8" font-family="Times,serif" font-size="14.00" fill="#000000">n</text>
</g>
<!-- Description -->
<g id="node17" class="node">
<title>Description</title>
<polygon fill="none" stroke="#000000" points="582.5726,-200 502.5726,-200 502.5726,-164 582.5726,-164 582.5726,-200"/>
<text text-anchor="middle" x="542.5726" y="-178.3" font-family="Times,serif" font-size="14.00" fill="#000000">Description</text>
</g>
<!-- co_i_1&#45;&#45;Description -->
<g id="edge18" class="edge">
<title>co_i_1&#45;&#45;Description</title>
<path fill="none" stroke="#000000" d="M345.6908,-183.4446C353.4411,-183.2708 361.2963,-183.1152 368.7588,-183 414.6216,-182.2919 467.2985,-182.0721 502.5293,-182.0104"/>
<text text-anchor="middle" x="426.6657" y="-186.8" font-family="Times,serif" font-size="14.00" fill="#000000">1</text>
</g>
<!-- c_r_1 -->
<g id="node10" class="node">
<title>c_r_1</title>
<polygon fill="none" stroke="#000000" points="1532.7695,-170 1475.794,-152 1532.7695,-134 1589.745,-152 1532.7695,-170"/>
<text text-anchor="middle" x="1532.7695" y="-148.3" font-family="Times,serif" font-size="14.00" fill="#000000">accesses</text>
</g>
<!-- c_r_1&#45;&#45;Role -->
<g id="edge20" class="edge">
<title>c_r_1&#45;&#45;Role</title>
<path fill="none" stroke="#000000" d="M1557.9061,-141.9064C1580.6438,-132.776 1614.0497,-119.3618 1637.4394,-109.9696"/>
<text text-anchor="middle" x="1613.7573" y="-123.8" font-family="Times,serif" font-size="14.00" fill="#000000">m</text>
</g>
<!-- User -->
<g id="node11" class="node">
<title>User</title>
<polygon fill="none" stroke="#000000" points="184.5917,-284 130.5917,-284 130.5917,-248 184.5917,-248 184.5917,-284"/>
<text text-anchor="middle" x="157.5917" y="-262.3" font-family="Times,serif" font-size="14.00" fill="#000000">User</text>
</g>
<!-- User&#45;&#45;u_i_1 -->
<g id="edge1" class="edge">
<title>User&#45;&#45;u_i_1</title>
<path fill="none" stroke="#000000" d="M184.8559,-271.5944C205.9333,-275.9194 235.1564,-281.9157 257.312,-286.4619"/>
<text text-anchor="middle" x="206.0917" y="-279.8" font-family="Times,serif" font-size="14.00" fill="#000000">n</text>
</g>
<!-- User&#45;&#45;u_i_2 -->
<g id="edge2" class="edge">
<title>User&#45;&#45;u_i_2</title>
<path fill="none" stroke="#000000" d="M184.6957,-259.8629C190.5894,-258.5602 196.795,-257.213 202.5917,-256 222.6838,-251.7958 245.4647,-247.335 262.6147,-244.0383"/>
<text text-anchor="middle" x="206.0917" y="-259.8" font-family="Times,serif" font-size="14.00" fill="#000000">n</text>
</g>
<!-- User&#45;&#45;u_i_3 -->
<g id="edge3" class="edge">
<title>User&#45;&#45;u_i_3</title>
<path fill="none" stroke="#000000" d="M178.3809,-284.2093C191.8239,-295.4213 210.0318,-309.5899 227.5917,-320 238.9392,-326.7271 252.2678,-332.7761 263.6178,-337.435"/>
<text text-anchor="middle" x="206.0917" y="-311.8" font-family="Times,serif" font-size="14.00" fill="#000000">1</text>
</g>
<!-- User&#45;&#45;u_r_1 -->
<g id="edge15" class="edge">
<title>User&#45;&#45;u_r_1</title>
<path fill="none" stroke="#000000" d="M163.6575,-247.7778C173.03,-222.7872 193.5904,-178.6336 227.5917,-158 276.4167,-128.3707 344.6929,-128.9745 387.2623,-133.1912"/>
<text text-anchor="middle" x="206.0917" y="-181.8" font-family="Times,serif" font-size="14.00" fill="#000000">n</text>
</g>
<!-- Items&#45;&#45;i_t_1 -->
<g id="edge7" class="edge">
<title>Items&#45;&#45;i_t_1</title>
<path fill="none" stroke="#000000" d="M569.7588,-293.6863C592.8861,-291.718 626.1668,-288.8856 650.7701,-286.7917"/>
<text text-anchor="middle" x="606.5726" y="-293.8" font-family="Times,serif" font-size="14.00" fill="#000000">m</text>
</g>
<!-- Items&#45;&#45;i_c_1 -->
<g id="edge9" class="edge">
<title>Items&#45;&#45;i_c_1</title>
<path fill="none" stroke="#000000" d="M569.6334,-281.8545C586.6997,-273.4809 609.4357,-263.3091 630.5726,-257 688.8515,-239.6043 755.5012,-227.9127 810.9697,-220.3275"/>
<text text-anchor="middle" x="606.5726" y="-270.8" font-family="Times,serif" font-size="14.00" fill="#000000">n</text>
</g>
<!-- Items&#45;&#45;u_l_1 -->
<g id="edge13" class="edge">
<title>Items&#45;&#45;u_l_1</title>
<path fill="none" stroke="#000000" d="M553.9751,-314.4207C569.7625,-339.3013 599.8264,-384.5008 630.5726,-419 639.1625,-428.6384 649.5202,-438.3675 658.7916,-446.5229"/>
<text text-anchor="middle" x="606.5726" y="-399.8" font-family="Times,serif" font-size="14.00" fill="#000000">n</text>
</g>
<!-- i_id -->
<g id="node24" class="node">
<title>i_id</title>
<ellipse fill="none" stroke="#000000" cx="683.5726" cy="-392" rx="27" ry="18"/>
<text text-anchor="middle" x="683.5726" y="-388.3" font-family="Times,serif" font-size="14.00" fill="#000000">ID</text>
</g>
<!-- Items&#45;&#45;i_id -->
<g id="edge27" class="edge">
<title>Items&#45;&#45;i_id</title>
<path fill="none" stroke="#000000" d="M563.4119,-314.2261C580.7246,-328.8952 606.3523,-349.5416 630.5726,-365 640.2348,-371.1669 651.4823,-377.062 661.1237,-381.7616"/>
</g>
<!-- i_name -->
<g id="node25" class="node">
<title>i_name</title>
<ellipse fill="none" stroke="#000000" cx="683.5726" cy="-338" rx="32.4942" ry="18"/>
<text text-anchor="middle" x="683.5726" y="-334.3" font-family="Times,serif" font-size="14.00" fill="#000000">Name</text>
</g>
<!-- Items&#45;&#45;i_name -->
<g id="edge28" class="edge">
<title>Items&#45;&#45;i_name</title>
<path fill="none" stroke="#000000" d="M569.7588,-304.098C594.0865,-311.3446 629.6489,-321.9376 654.5283,-329.3485"/>
</g>
<!-- lo_id -->
<g id="node32" class="node">
<title>lo_id</title>
<ellipse fill="none" stroke="#000000" cx="1277.1772" cy="-437" rx="27" ry="18"/>
<text text-anchor="middle" x="1277.1772" y="-433.3" font-family="Times,serif" font-size="14.00" fill="#000000">ID</text>
</g>
<!-- Locations&#45;&#45;lo_id -->
<g id="edge35" class="edge">
<title>Locations&#45;&#45;lo_id</title>
<path fill="none" stroke="#000000" d="M1190.7457,-474.6702C1211.2281,-465.7432 1236.4602,-454.746 1254.3623,-446.9436"/>
</g>
<!-- lo_Room -->
<g id="node33" class="node">
<title>lo_Room</title>
<ellipse fill="none" stroke="#000000" cx="1277.1772" cy="-545" rx="32.4942" ry="18"/>
<text text-anchor="middle" x="1277.1772" y="-541.3" font-family="Times,serif" font-size="14.00" fill="#000000">Room</text>
</g>
<!-- Locations&#45;&#45;lo_Room -->
<g id="edge37" class="edge">
<title>Locations&#45;&#45;lo_Room</title>
<path fill="none" stroke="#000000" d="M1190.7457,-505.9083C1210.2461,-514.728 1234.0516,-525.4949 1251.7381,-533.4943"/>
</g>
<!-- lo_House -->
<g id="node34" class="node">
<title>lo_House</title>
<ellipse fill="none" stroke="#000000" cx="1277.1772" cy="-491" rx="33.2948" ry="18"/>
<text text-anchor="middle" x="1277.1772" y="-487.3" font-family="Times,serif" font-size="14.00" fill="#000000">House</text>
</g>
<!-- Locations&#45;&#45;lo_House -->
<g id="edge36" class="edge">
<title>Locations&#45;&#45;lo_House</title>
<path fill="none" stroke="#000000" d="M1190.7457,-490.2892C1207.4403,-490.4265 1227.2902,-490.5898 1243.7547,-490.7252"/>
</g>
<!-- Categories&#45;&#45;c_r_1 -->
<g id="edge19" class="edge">
<title>Categories&#45;&#45;c_r_1</title>
<path fill="none" stroke="#000000" d="M1432.8527,-168.7759C1452.1866,-165.5297 1475.7851,-161.5676 1495.1927,-158.3091"/>
<text text-anchor="middle" x="1454.2818" y="-168.8" font-family="Times,serif" font-size="14.00" fill="#000000">n</text>
</g>
<!-- Tags&#45;&#45;t_c_1 -->
<g id="edge11" class="edge">
<title>Tags&#45;&#45;t_c_1</title>
<path fill="none" stroke="#000000" d="M1175.578,-300.9279C1192.1101,-286.2294 1216.3842,-265.1842 1238.5726,-248 1245.8148,-242.3911 1254.1093,-236.522 1261.149,-231.694"/>
<text text-anchor="middle" x="1214.5726" y="-273.8" font-family="Times,serif" font-size="14.00" fill="#000000">m</text>
</g>
<!-- t_id -->
<g id="node26" class="node">
<title>t_id</title>
<ellipse fill="none" stroke="#000000" cx="1277.1772" cy="-383" rx="27" ry="18"/>
<text text-anchor="middle" x="1277.1772" y="-379.3" font-family="Times,serif" font-size="14.00" fill="#000000">ID</text>
</g>
<!-- Tags&#45;&#45;t_id -->
<g id="edge29" class="edge">
<title>Tags&#45;&#45;t_id</title>
<path fill="none" stroke="#000000" d="M1182.863,-333.3628C1204.8511,-344.9351 1235.3423,-360.9824 1255.637,-371.6635"/>
</g>
<!-- t_label -->
<g id="node27" class="node">
<title>t_label</title>
<ellipse fill="none" stroke="#000000" cx="1277.1772" cy="-329" rx="30.5947" ry="18"/>
<text text-anchor="middle" x="1277.1772" y="-325.3" font-family="Times,serif" font-size="14.00" fill="#000000">Label</text>
</g>
<!-- Tags&#45;&#45;t_label -->
<g id="edge30" class="edge">
<title>Tags&#45;&#45;t_label</title>
<path fill="none" stroke="#000000" d="M1182.863,-321.2442C1201.7699,-322.799 1226.9639,-324.8708 1246.5562,-326.4819"/>
</g>
<!-- Read -->
<g id="node35" class="node">
<title>Read</title>
<ellipse fill="none" stroke="#000000" cx="1761.2544" cy="-180" rx="28.6953" ry="18"/>
<text text-anchor="middle" x="1761.2544" y="-176.3" font-family="Times,serif" font-size="14.00" fill="#000000">Read</text>
</g>
<!-- Role&#45;&#45;Read -->
<g id="edge38" class="edge">
<title>Role&#45;&#45;Read</title>
<path fill="none" stroke="#000000" d="M1686.0566,-117.0405C1698.4896,-127.554 1714.4896,-141.054 1728.7573,-153 1733.594,-157.0496 1738.8484,-161.4255 1743.6941,-165.4513"/>
</g>
<!-- Write -->
<g id="node36" class="node">
<title>Write</title>
<ellipse fill="none" stroke="#000000" cx="1761.2544" cy="-126" rx="31.3957" ry="18"/>
<text text-anchor="middle" x="1761.2544" y="-122.3" font-family="Times,serif" font-size="14.00" fill="#000000">Write</text>
</g>
<!-- Role&#45;&#45;Write -->
<g id="edge39" class="edge">
<title>Role&#45;&#45;Write</title>
<path fill="none" stroke="#000000" d="M1691.8939,-106.5929C1704.7153,-110.1803 1720.0142,-114.4609 1732.9775,-118.0881"/>
</g>
<!-- ID -->
<g id="node37" class="node">
<title>ID</title>
<ellipse fill="none" stroke="#000000" cx="1761.2544" cy="-72" rx="27" ry="18"/>
<text text-anchor="middle" x="1761.2544" y="-68.3" font-family="Times,serif" font-size="14.00" fill="#000000">ID</text>
</g>
<!-- Role&#45;&#45;ID -->
<g id="edge40" class="edge">
<title>Role&#45;&#45;ID</title>
<path fill="none" stroke="#000000" d="M1691.8939,-91.4071C1705.8302,-87.5078 1722.6936,-82.7893 1736.303,-78.9814"/>
</g>
<!-- Name -->
<g id="node38" class="node">
<title>Name</title>
<ellipse fill="none" stroke="#000000" cx="1761.2544" cy="-18" rx="32.4942" ry="18"/>
<text text-anchor="middle" x="1761.2544" y="-14.3" font-family="Times,serif" font-size="14.00" fill="#000000">Name</text>
</g>
<!-- Role&#45;&#45;Name -->
<g id="edge41" class="edge">
<title>Role&#45;&#45;Name</title>
<path fill="none" stroke="#000000" d="M1686.0566,-80.9595C1698.4896,-70.446 1714.4896,-56.946 1728.7573,-45 1733.369,-41.1387 1738.3605,-36.9809 1743.0154,-33.1126"/>
</g>
<!-- d_id -->
<g id="node30" class="node">
<title>d_id</title>
<ellipse fill="none" stroke="#000000" cx="683.5726" cy="-186" rx="27" ry="18"/>
<text text-anchor="middle" x="683.5726" y="-182.3" font-family="Times,serif" font-size="14.00" fill="#000000">ID</text>
</g>
<!-- Description&#45;&#45;d_id -->
<g id="edge33" class="edge">
<title>Description&#45;&#45;d_id</title>
<path fill="none" stroke="#000000" d="M582.6004,-183.1355C606.2115,-183.8054 635.4691,-184.6354 656.402,-185.2292"/>
</g>
<!-- d_text -->
<g id="node31" class="node">
<title>d_text</title>
<ellipse fill="none" stroke="#000000" cx="683.5726" cy="-132" rx="27" ry="18"/>
<text text-anchor="middle" x="683.5726" y="-128.3" font-family="Times,serif" font-size="14.00" fill="#000000">Text</text>
</g>
<!-- Description&#45;&#45;d_text -->
<g id="edge34" class="edge">
<title>Description&#45;&#45;d_text</title>
<path fill="none" stroke="#000000" d="M582.6004,-167.8057C607.3513,-159.0288 638.3071,-148.0516 659.3739,-140.5811"/>
</g>
<!-- u_Email -->
<g id="node18" class="node">
<title>u_Email</title>
<ellipse fill="none" stroke="#000000" cx="46.7958" cy="-401" rx="32.4942" ry="18"/>
<text text-anchor="middle" x="46.7958" y="-397.3" font-family="Times,serif" font-size="14.00" fill="#000000">Email</text>
</g>
<!-- u_Email&#45;&#45;User -->
<g id="edge22" class="edge">
<title>u_Email&#45;&#45;User</title>
<path fill="none" stroke="#000000" d="M72.2484,-389.4235C79.6847,-385.2593 87.4545,-380.0662 93.5917,-374 120.408,-347.494 140.2079,-307.491 150.2281,-284.3379"/>
</g>
<!-- u_userName -->
<g id="node19" class="node">
<title>u_userName</title>
<ellipse fill="none" stroke="#000000" cx="46.7958" cy="-347" rx="46.5926" ry="18"/>
<text text-anchor="middle" x="46.7958" y="-343.3" font-family="Times,serif" font-size="14.00" fill="#000000">Username</text>
</g>
<!-- u_userName&#45;&#45;User -->
<g id="edge25" class="edge">
<title>u_userName&#45;&#45;User</title>
<path fill="none" stroke="#000000" d="M74.5215,-332.089C80.9206,-328.3522 87.6038,-324.2036 93.5917,-320 109.1787,-309.0575 125.5722,-295.1737 137.8652,-284.2243"/>
</g>
<!-- u_firstName -->
<g id="node20" class="node">
<title>u_firstName</title>
<ellipse fill="none" stroke="#000000" cx="46.7958" cy="-293" rx="46.2923" ry="18"/>
<text text-anchor="middle" x="46.7958" y="-289.3" font-family="Times,serif" font-size="14.00" fill="#000000">Firstname</text>
</g>
<!-- u_firstName&#45;&#45;User -->
<g id="edge23" class="edge">
<title>u_firstName&#45;&#45;User</title>
<path fill="none" stroke="#000000" d="M86.1703,-283.4048C100.8493,-279.8276 117.1705,-275.8503 130.5013,-272.6017"/>
</g>
<!-- u_lastName -->
<g id="node21" class="node">
<title>u_lastName</title>
<ellipse fill="none" stroke="#000000" cx="46.7958" cy="-239" rx="45.4919" ry="18"/>
<text text-anchor="middle" x="46.7958" y="-235.3" font-family="Times,serif" font-size="14.00" fill="#000000">Lastname</text>
</g>
<!-- u_lastName&#45;&#45;User -->
<g id="edge24" class="edge">
<title>u_lastName&#45;&#45;User</title>
<path fill="none" stroke="#000000" d="M85.5469,-248.4433C100.3988,-252.0626 117.0105,-256.1107 130.5367,-259.4069"/>
</g>
<!-- u_hash -->
<g id="node22" class="node">
<title>u_hash</title>
<ellipse fill="none" stroke="#000000" cx="46.7958" cy="-185" rx="28.6953" ry="18"/>
<text text-anchor="middle" x="46.7958" y="-181.3" font-family="Times,serif" font-size="14.00" fill="#000000">Hash</text>
</g>
<!-- u_hash&#45;&#45;User -->
<g id="edge21" class="edge">
<title>u_hash&#45;&#45;User</title>
<path fill="none" stroke="#000000" d="M68.724,-196.5889C76.7419,-201.1 85.7614,-206.5029 93.5917,-212 109.1787,-222.9425 125.5722,-236.8263 137.8652,-247.7757"/>
</g>
<!-- u_id -->
<g id="node23" class="node">
<title>u_id</title>
<ellipse fill="none" stroke="#000000" cx="46.7958" cy="-131" rx="27" ry="18"/>
<text text-anchor="middle" x="46.7958" y="-127.3" font-family="Times,serif" font-size="14.00" fill="#000000">ID</text>
</g>
<!-- u_id&#45;&#45;User -->
<g id="edge26" class="edge">
<title>u_id&#45;&#45;User</title>
<path fill="none" stroke="#000000" d="M69.3599,-140.9999C77.6301,-145.4008 86.654,-151.1426 93.5917,-158 120.408,-184.506 140.2079,-224.509 150.2281,-247.6621"/>
</g>
<!-- c_name -->
<g id="node28" class="node">
<title>c_name</title>
<ellipse fill="none" stroke="#000000" cx="1277.1772" cy="-129" rx="32.4942" ry="18"/>
<text text-anchor="middle" x="1277.1772" y="-125.3" font-family="Times,serif" font-size="14.00" fill="#000000">Name</text>
</g>
<!-- c_name&#45;&#45;Categories -->
<g id="edge31" class="edge">
<title>c_name&#45;&#45;Categories</title>
<path fill="none" stroke="#000000" d="M1304.0904,-139.4381C1320.2201,-145.6939 1340.9613,-153.7383 1358.6358,-160.5932"/>
</g>
<!-- c_id -->
<g id="node29" class="node">
<title>c_id</title>
<ellipse fill="none" stroke="#000000" cx="1277.1772" cy="-275" rx="27" ry="18"/>
<text text-anchor="middle" x="1277.1772" y="-271.3" font-family="Times,serif" font-size="14.00" fill="#000000">ID</text>
</g>
<!-- c_id&#45;&#45;Categories -->
<g id="edge32" class="edge">
<title>c_id&#45;&#45;Categories</title>
<path fill="none" stroke="#000000" d="M1296.3837,-262.2927C1302.6908,-257.9299 1309.652,-252.9064 1315.7818,-248 1337.8003,-230.3759 1361.4817,-208.3424 1377.3178,-193.1176"/>
</g>
</g>
</svg>
