<?xml version="1.0" encoding="UTF-8" standalone="no"?>
<svg
   xmlns:dc="http://purl.org/dc/elements/1.1/"
   xmlns:cc="http://creativecommons.org/ns#"
   xmlns:rdf="http://www.w3.org/1999/02/22-rdf-syntax-ns#"
   xmlns:svg="http://www.w3.org/2000/svg"
   xmlns="http://www.w3.org/2000/svg"
   version="1.1"
   id="svg2"
   viewBox="0 0 454.50002 307.79999"
   height="86.867996mm"
   width="128.27mm">
  <defs
     id="defs4" />
  <metadata
     id="metadata7">
    <rdf:RDF>
      <cc:Work
         rdf:about="">
        <dc:format>image/svg+xml</dc:format>
        <dc:type
           rdf:resource="http://purl.org/dc/dcmitype/StillImage" />
        <dc:title></dc:title>
      </cc:Work>
    </rdf:RDF>
  </metadata>
  <g
     transform="translate(-177.75001,-312.74793)"
     id="layer1">
    <g
       transform="translate(17.142859,14.285714)"
       id="g4147">
      <path
         id="path4153"
         d="m 160.60715,452.36221 0,-153.89999 227.25,0 227.25,0 0,153.89999 0,153.9 -227.25,0 -227.25,0 0,-153.9 z"
         style="fill:#fdfdfd" />
      <path
         id="path4151"
         d="m 337.15715,587.15742 c -10.32607,-1.31821 -27.30332,-6.7179 -37.65,-11.97474 -6.75114,-3.43006 -15.63731,-9.28118 -23.06809,-15.18926 -3.87761,-3.08302 -4.07227,-3.19717 -4.61491,-2.70609 -0.31159,0.28198 -0.76505,0.98794 -1.00768,1.56879 -1.35831,3.25173 -5.24935,4.90488 -9.88926,4.20155 -3.47747,-0.52712 -8.52006,-2.39753 -8.52006,-3.16026 0,-0.19453 0.61319,-0.58786 1.36264,-0.87408 0.74946,-0.28622 2.53821,-1.4018 3.975,-2.47906 1.4368,-1.07727 3.08263,-2.15891 3.6574,-2.40365 2.23386,-0.9512 6.71594,-0.20737 8.84586,1.46803 0.43488,0.34208 0.86379,0.54887 0.95312,0.45954 0.0893,-0.0893 -1.72153,-2.02847 -4.02414,-4.3092 -2.30261,-2.28073 -4.92917,-5.00526 -5.8368,-6.0545 -1.46345,-1.69179 -1.72007,-1.87035 -2.26727,-1.5775 -0.33937,0.18163 -0.70476,0.7296 -0.81196,1.21772 -0.10722,0.48811 -0.73846,1.44755 -1.40277,2.13208 -3.6037,3.71337 -9.41787,3.80744 -17.58982,0.2846 -1.95868,-0.84437 -1.93689,-1.36875 0.0887,-2.13521 0.825,-0.31217 2.85,-1.57738 4.5,-2.81158 3.18643,-2.38344 4.87483,-3.15239 6.92184,-3.15239 1.5072,0 4.67749,0.94331 6.08699,1.81117 0.55486,0.34164 1.05973,0.57027 1.12192,0.50808 0.0622,-0.0622 -0.84491,-1.45323 -2.01579,-3.09117 -3.94881,-5.52396 -7.61307,-12.25205 -9.59817,-17.62354 -1.08063,-2.9241 -1.09303,-3.43632 -0.0893,-3.68825 0.63334,-0.15896 8.48468,0.62098 8.69206,0.86346 0.0331,0.0386 0.55436,1.05743 1.15846,2.26397 7.82218,15.62291 21.41918,29.45506 42.17197,42.9013 8.55972,5.54606 19.88206,10.13178 30.14793,12.21038 4.20774,0.85197 6.91678,0.93258 10.20397,0.30364 2.96221,-0.56676 5.14896,-1.57876 6.90093,-3.19368 3.37295,-3.10908 3.66578,-5.68746 1.79604,-15.81461 -0.38466,-2.08346 -0.63505,-3.89221 -0.55642,-4.01943 0.0786,-0.12723 2.95346,-0.23132 6.38852,-0.23132 4.63054,0 6.326,0.097 6.55664,0.375 0.43476,0.52409 2.04137,8.98802 2.47836,13.05648 0.49963,4.65161 0.23594,10.49082 -0.57659,12.76855 -2.13982,5.99845 -7.45185,8.35556 -18.60368,8.25502 -2.74214,-0.0247 -5.3907,-0.0967 -5.8857,-0.15984 z m -34.76599,-0.39335 c -0.8063,-0.14512 -1.58842,-0.38627 -1.73805,-0.5359 -0.35381,-0.35381 4.46799,-5.33403 5.57,-5.75302 1.47336,-0.56017 4.76185,-0.19766 5.78871,0.63811 0.49019,0.39898 -0.23989,2.77299 -1.16112,3.77562 -1.5269,1.66181 -5.16471,2.46819 -8.45955,1.87519 z m -17.47669,-4.77309 c -1.98647,-0.50525 -2.00906,-0.43475 1.19277,-3.7213 1.67745,-1.72183 3.48196,-3.3504 4.01001,-3.61904 1.73132,-0.88077 6.35949,-0.44746 7.688,0.71979 0.36675,0.32223 -0.39452,2.67733 -1.27821,3.9543 -0.42344,0.61189 -1.44489,1.487 -2.26989,1.94469 -1.36772,0.75879 -1.80424,0.83787 -4.95,0.89675 -1.8975,0.0355 -3.8742,-0.0433 -4.39268,-0.17519 z m -7.30732,-7.42015 c -3.57742,-0.52153 -8.4,-2.22284 -8.4,-2.96335 0,-0.21931 0.48244,-0.55796 1.07209,-0.75256 0.58964,-0.1946 2.10839,-1.13163 3.375,-2.08229 3.15275,-2.36633 3.91449,-2.71042 6.00029,-2.71042 2.08837,0 3.74866,0.53056 5.78067,1.84726 1.28263,0.83111 1.42111,1.01568 1.07185,1.42858 -0.2206,0.26079 -0.57495,0.91353 -0.78746,1.45054 -0.4492,1.13515 -2.01754,2.60102 -3.39861,3.17657 -1.08225,0.45102 -3.57641,0.77149 -4.71383,0.60567 z m 166.86,-22.66862 c -0.26049,-0.26049 -0.36,-2.4 -0.36,-7.74 0,-5.34 0.0995,-7.47951 0.36,-7.74 0.50861,-0.50861 3.08406,-0.45938 3.52117,0.0673 0.30453,0.36693 0.53227,0.34667 1.61174,-0.14341 1.69155,-0.76798 3.19349,-0.73695 4.41014,0.0911 1.81345,1.23422 2.23597,2.10627 2.3509,4.85199 0.11863,2.83436 -0.41164,4.29506 -2.06392,5.68536 -1.19671,1.00697 -2.0239,1.20418 -4.21679,1.00534 l -1.77324,-0.16079 0,1.86155 c 0,1.04787 -0.15736,2.01891 -0.36,2.22155 -0.198,0.198 -0.981,0.36 -1.74,0.36 -0.759,0 -1.542,-0.162 -1.74,-0.36 z m 7.00363,-7.57636 c 0.59737,-0.59737 0.73637,-1.03779 0.73637,-2.33325 0,-2.05445 -0.58064,-2.93039 -1.94248,-2.93039 -1.88956,0 -1.95752,0.10354 -1.95752,2.9821 0,1.43985 0.09,2.7079 0.2,2.8179 0.49199,0.49199 2.25421,0.17306 2.96363,-0.53636 z m -141.96571,3.74114 c -4.09796,-0.8695 -6.32296,-4.02766 -6.03198,-8.56178 0.30391,-4.7356 3.36735,-7.343 8.62729,-7.343 2.19195,0 4.81694,0.65303 5.54282,1.37891 0.50444,0.50444 0.62878,2.69632 0.19208,3.38586 -0.21374,0.33747 -0.61317,0.23963 -2.14333,-0.525 -4.33747,-2.16746 -7.7848,-0.44655 -7.7848,3.88619 0,2.81283 1.8852,4.77247 4.59225,4.77358 l 1.14225,6e-4 -0.0923,-1.275 c -0.092,-1.27192 -0.0957,-1.27552 -1.44225,-1.42514 l -1.35,-0.15 0,-1.35 0,-1.35 3.6,0 3.6,0 0,3.75 0,3.75 -1.57658,0.52305 c -1.9242,0.63838 -5.18451,0.89052 -6.8755,0.53173 z m 23.90208,-0.23024 c -1.75913,-0.87879 -2.099,-1.98594 -2.09954,-6.83954 -2.9e-4,-2.87889 0.11366,-4.32911 0.35954,-4.575 0.198,-0.198 0.981,-0.36 1.74,-0.36 0.759,0 1.542,0.162 1.74,0.36 0.24033,0.24033 0.36,1.56667 0.36,3.99 0,3.99873 0.1361,4.35 1.68546,4.35 1.91787,0 1.91454,0.007 1.91454,-4.17209 0,-2.56171 0.11782,-3.92572 0.36,-4.16791 0.198,-0.198 0.981,-0.36 1.74,-0.36 0.759,0 1.542,0.162 1.74,0.36 0.25273,0.25273 0.36,1.93333 0.36,5.64 0,3.70667 -0.10727,5.38728 -0.36,5.64 -0.50861,0.50862 -3.08406,0.45938 -3.52117,-0.0673 -0.30453,-0.36694 -0.53227,-0.34667 -1.61174,0.14341 -1.57505,0.71508 -3.05339,0.73468 -4.40709,0.0584 z m 31.2,0.0832 c -1.52556,-0.49662 -2.74988,-1.52189 -3.51356,-2.94232 -0.67743,-1.26002 -0.68039,-4.5091 -0.005,-5.79587 1.96913,-3.75314 7.78743,-4.65871 10.51741,-1.63694 1.0651,1.17893 1.58325,2.91913 1.35344,4.54544 -0.10121,0.71622 -0.13367,0.72264 -4.07702,0.80568 -3.61001,0.076 -3.975,0.13373 -3.975,0.6285 0,1.63284 2.98882,2.30075 5.68937,1.27139 0.90165,-0.34367 1.75406,-0.51017 1.89424,-0.36999 0.14018,0.14018 0.21246,0.84596 0.16063,1.56839 -0.0795,1.10855 -0.22928,1.37796 -0.9596,1.72648 -1.28254,0.61203 -5.45605,0.7294 -7.08464,0.19924 z m 3.72546,-7.53981 c 0.63168,-0.2424 0.59818,-0.59427 -0.12546,-1.31791 -0.74955,-0.74955 -1.82598,-0.76806 -2.71679,-0.0467 -1.05717,0.85605 -0.59596,1.54673 1.03284,1.54673 0.73418,0 1.54842,-0.0819 1.80941,-0.18209 z m 29.18858,7.57403 c -1.811,-0.51046 -3.44904,-1.81626 -4.41404,-3.51875 -0.65475,-1.15514 -0.7499,-1.68514 -0.74917,-4.17319 6e-4,-2.35649 0.11451,-3.06271 0.65732,-4.0784 0.84622,-1.58339 2.37214,-2.91168 4.10528,-3.57358 1.7865,-0.68227 5.53363,-0.5149 7.25225,0.32394 1.15395,0.56322 1.18663,0.62236 1.2744,2.30667 0.11153,2.14037 -0.29427,2.39108 -2.02083,1.2485 -2.51534,-1.66457 -5.51803,-1.09998 -6.4873,1.21981 -0.56304,1.34753 -0.55169,3.86005 0.0229,5.07091 1.02692,2.16408 4.05643,2.66152 6.55583,1.07645 0.78548,-0.49814 1.55441,-0.82767 1.70873,-0.7323 0.33722,0.20841 0.36826,3.13556 0.0387,3.65417 -0.71664,1.12789 -5.56705,1.84578 -7.94412,1.17577 z m 11.50446,-0.14012 c -2.83571,-1.5208 -2.63511,-5.28173 0.36496,-6.8424 0.4584,-0.23847 1.71931,-0.5163 2.80203,-0.6174 1.99517,-0.18631 2.76771,-0.73516 1.88323,-1.33792 -0.41731,-0.28439 -3.57626,-0.14852 -5.14372,0.22124 -0.81756,0.19285 -0.825,0.18081 -0.825,-1.33465 0,-1.41235 0.0631,-1.54689 0.825,-1.75997 0.45375,-0.1269 2.175,-0.23072 3.825,-0.23072 2.47258,0 3.1846,0.10728 4.05,0.61021 1.76442,1.02539 2.099,2.10182 2.09953,6.75479 3e-4,2.76223 -0.1149,4.18038 -0.35953,4.425 -0.4477,0.4477 -2.77094,0.47159 -3.58326,0.0368 -0.45495,-0.24348 -0.89538,-0.2065 -1.78635,0.15 -1.5554,0.62234 -2.89676,0.59811 -4.15189,-0.075 z m 5.1999,-2.84161 c 0.35465,-0.25933 0.49935,-0.68608 0.43234,-1.275 -0.0886,-0.77867 -0.20906,-0.87749 -1.00074,-0.82112 -1.58222,0.11265 -2.20514,0.37195 -2.40479,1.00101 -0.10713,0.33753 -0.0321,0.80972 0.16674,1.0493 0.44905,0.54108 2.09244,0.5679 2.80645,0.0458 z m 46.6816,2.86433 c -1.75913,-0.87879 -2.099,-1.98594 -2.09954,-6.83954 -3e-4,-2.87889 0.11366,-4.32911 0.35954,-4.575 0.198,-0.198 0.981,-0.36 1.74,-0.36 0.759,0 1.542,0.162 1.74,0.36 0.24033,0.24033 0.36,1.56667 0.36,3.99 0,3.99873 0.13611,4.35 1.68546,4.35 1.91787,0 1.91454,0.007 1.91454,-4.17209 0,-2.56171 0.11781,-3.92572 0.36,-4.16791 0.198,-0.198 0.981,-0.36 1.74,-0.36 0.759,0 1.542,0.162 1.74,0.36 0.25272,0.25273 0.36,1.93333 0.36,5.64 0,3.70667 -0.10728,5.38728 -0.36,5.64 -0.50862,0.50862 -3.08406,0.45938 -3.52116,-0.0673 -0.30453,-0.36694 -0.53229,-0.34667 -1.61175,0.14341 -1.57506,0.71508 -3.0534,0.73468 -4.40709,0.0584 z m 14.85,0.34019 c -2.57721,-0.66074 -2.55,-0.63526 -2.55,-2.38799 0,-0.89471 0.11784,-1.62674 0.26187,-1.62674 0.14403,0 0.88806,0.277 1.65342,0.61556 1.72134,0.76142 4.47342,0.72749 4.62243,-0.057 0.0737,-0.38788 -0.39771,-0.60068 -2.2371,-1.0099 -1.84887,-0.41134 -2.53398,-0.72203 -3.31551,-1.50357 -1.72329,-1.72327 -1.18245,-4.21787 1.2054,-5.55992 1.48143,-0.83262 4.55049,-1.07491 6.65949,-0.52576 l 1.5,0.39058 0.0907,1.575 c 0.10215,1.77451 -0.0572,1.87173 -1.84443,1.125 -1.39524,-0.58297 -3.60909,-0.58702 -4.09005,-0.007 -0.45246,0.54516 0.20619,0.8683 2.79363,1.37062 1.16274,0.22573 2.06865,0.62457 2.7,1.18868 0.82707,0.73898 0.95016,1.04335 0.95016,2.3494 0,1.64511 -0.69384,2.68653 -2.37108,3.55881 -0.87453,0.45483 -4.90683,0.79239 -6.02892,0.5047 z m 38.56851,-0.36291 c -2.83572,-1.5208 -2.63511,-5.28173 0.36495,-6.8424 0.4584,-0.23847 1.7193,-0.5163 2.80203,-0.6174 1.99518,-0.18631 2.76771,-0.73516 1.88322,-1.33792 -0.4173,-0.28439 -3.57624,-0.14852 -5.14371,0.22124 -0.81756,0.19285 -0.825,0.18081 -0.825,-1.33465 0,-1.41235 0.0631,-1.54689 0.825,-1.75997 0.45375,-0.1269 2.175,-0.23072 3.825,-0.23072 2.47257,0 3.18459,0.10728 4.05,0.61021 1.76442,1.02539 2.09901,2.10182 2.09952,6.75479 0,2.76223 -0.1149,4.18038 -0.35952,4.425 -0.44769,0.4477 -2.77095,0.47159 -3.58326,0.0368 -0.45495,-0.24348 -0.89538,-0.2065 -1.78635,0.15 -1.55541,0.62234 -2.89677,0.59811 -4.15188,-0.075 z m 5.1999,-2.84161 c 0.35463,-0.25933 0.49935,-0.68608 0.43233,-1.275 -0.0886,-0.77867 -0.20907,-0.87749 -1.00074,-0.82112 -1.58223,0.11265 -2.20512,0.37195 -2.4048,1.00101 -0.10713,0.33753 -0.0321,0.80972 0.16674,1.0493 0.44907,0.54108 2.09244,0.5679 2.80647,0.0458 z m 18.18159,2.94611 c -2.67405,-0.86771 -4.03947,-2.85694 -4.01979,-5.85632 0.0147,-2.24192 0.50493,-3.3858 2.02194,-4.71774 1.77327,-1.55694 5.73696,-2.02964 8.07285,-0.96275 0.74511,0.34031 0.825,0.52707 0.825,1.92865 0,0.85351 -0.0842,1.63606 -0.18714,1.73899 -0.10293,0.10293 -0.71889,-0.0841 -1.36878,-0.41567 -1.67865,-0.85639 -3.73152,-0.69332 -4.51389,0.35855 -0.84237,1.13253 -0.79167,3.40296 0.0971,4.34902 0.54462,0.57972 0.97905,0.72095 2.21766,0.72095 0.88995,0 1.78626,-0.18598 2.12271,-0.44046 1.21065,-0.9157 1.63233,-0.60626 1.63233,1.19789 0,1.52892 -0.064,1.68274 -0.825,1.98404 -1.3557,0.53673 -4.58664,0.5978 -6.075,0.11485 z m 27.31095,0.0915 c -2.63022,-0.75465 -4.03875,-2.82897 -4.03875,-5.94777 0,-3.4282 1.54779,-5.40026 4.76865,-6.07585 1.99731,-0.41894 4.48812,-3e-4 5.87508,0.98719 2.93148,2.08741 2.97036,8.06491 0.0659,10.12935 -1.64289,1.16774 -4.43778,1.54778 -6.67083,0.90708 z m 3.86676,-3.37404 c 0.55725,-0.59315 0.68229,-1.06488 0.68229,-2.57373 0,-1.50885 -0.12504,-1.98057 -0.68229,-2.57373 -0.3891,-0.41418 -1.02408,-0.72627 -1.47771,-0.72627 -0.45363,0 -1.08861,0.31209 -1.47771,0.72627 -0.55725,0.59316 -0.68229,1.06488 -0.68229,2.57373 0,1.50885 0.12504,1.98058 0.68229,2.57373 0.3891,0.41419 1.02408,0.72627 1.47771,0.72627 0.45363,0 1.08861,-0.31208 1.47771,-0.72627 z m -247.41771,3.06627 c -0.25273,-0.25272 -0.36,-1.93333 -0.36,-5.64 0,-3.70667 0.10727,-5.38727 0.36,-5.64 0.198,-0.198 1.00034,-0.36 1.78299,-0.36 1.08519,0 1.52323,0.14312 1.84528,0.60291 l 0.4223,0.60292 1.42137,-0.62875 c 0.87781,-0.38829 1.70362,-0.5579 2.15941,-0.44351 0.69071,0.17336 0.73228,0.29523 0.64834,1.90083 l -0.0897,1.7156 -1.2,0.077 c -0.66,0.0423 -1.63875,0.14969 -2.175,0.23859 l -0.975,0.16164 0,3.52641 c 0,2.34275 -0.12083,3.64724 -0.36,3.8864 -0.198,0.198 -0.981,0.36 -1.74,0.36 -0.759,0 -1.542,-0.162 -1.74,-0.36 z m 25.2,0 c -0.25273,-0.25272 -0.36,-1.93333 -0.36,-5.64 0,-3.70667 0.10727,-5.38727 0.36,-5.64 0.50861,-0.50861 3.08406,-0.45938 3.52117,0.0673 0.30453,0.36693 0.53227,0.34667 1.61174,-0.14341 2.41949,-1.09847 4.91589,-0.46504 5.95665,1.51141 0.45829,0.87032 0.55044,1.75177 0.55044,5.265 0,2.88198 -0.11413,4.33381 -0.36,4.57968 -0.198,0.198 -0.981,0.36 -1.74,0.36 -0.759,0 -1.542,-0.162 -1.74,-0.36 -0.24033,-0.24033 -0.36,-1.56666 -0.36,-3.99 0,-3.99872 -0.1361,-4.35 -1.68546,-4.35 -1.91787,0 -1.91454,-0.007 -1.91454,4.1721 0,2.5617 -0.11782,3.92572 -0.36,4.1679 -0.198,0.198 -0.981,0.36 -1.74,0.36 -0.759,0 -1.542,-0.162 -1.74,-0.36 z m 28.8,0 c -0.25273,-0.25272 -0.36,-1.93333 -0.36,-5.64 0,-3.70667 0.10727,-5.38727 0.36,-5.64 0.198,-0.198 1.00034,-0.36 1.78299,-0.36 1.08519,0 1.52323,0.14312 1.84528,0.60291 l 0.4223,0.60292 1.42137,-0.62875 c 0.87781,-0.38829 1.70362,-0.5579 2.15941,-0.44351 0.69071,0.17336 0.73228,0.29523 0.64834,1.90083 l -0.0897,1.7156 -1.2,0.077 c -0.66,0.0423 -1.63875,0.14969 -2.175,0.23859 l -0.975,0.16164 0,3.52641 c 0,2.34275 -0.12083,3.64724 -0.36,3.8864 -0.198,0.198 -0.981,0.36 -1.74,0.36 -0.759,0 -1.542,-0.162 -1.74,-0.36 z m 46.8,0 c -0.25273,-0.25272 -0.36,-1.93333 -0.36,-5.64 0,-3.70667 0.10727,-5.38727 0.36,-5.64 0.50861,-0.50861 3.08406,-0.45938 3.52117,0.0673 0.30453,0.36693 0.53227,0.34667 1.61174,-0.14341 0.6914,-0.3139 1.64169,-0.5737 2.11175,-0.57732 0.95375,-0.007 2.89534,0.81586 2.89534,1.22759 0,0.46425 0.82455,0.28906 2.27881,-0.48418 1.60348,-0.85258 2.69227,-0.93727 4.1609,-0.32363 1.72425,0.72044 2.08308,1.81078 2.20783,6.70874 0.0781,3.06603 0.005,4.41025 -0.25593,4.725 -0.44698,0.53858 -3.01484,0.59667 -3.53161,0.0799 -0.24033,-0.24033 -0.36,-1.56666 -0.36,-3.99 0,-3.92411 -0.15033,-4.35 -1.53546,-4.35 -1.74765,0 -1.76454,0.0399 -1.76454,4.1721 0,2.5617 -0.11782,3.92572 -0.36,4.1679 -0.198,0.198 -0.981,0.36 -1.74,0.36 -0.759,0 -1.542,-0.162 -1.74,-0.36 -0.24033,-0.24033 -0.36,-1.56666 -0.36,-3.99 0,-3.92411 -0.15033,-4.35 -1.53546,-4.35 -1.74765,0 -1.76454,0.0399 -1.76454,4.1721 0,2.5617 -0.11782,3.92572 -0.36,4.1679 -0.198,0.198 -0.981,0.36 -1.74,0.36 -0.759,0 -1.542,-0.162 -1.74,-0.36 z m 71.70963,0.10939 c -0.29412,-0.18668 -0.36213,-1.93715 -0.3,-7.72041 l 0.0804,-7.47898 2.33946,-0.0879 2.33946,-0.0879 1.33554,2.85798 c 0.73455,1.57189 1.33554,2.97866 1.33554,3.12615 0,0.14749 0.17766,0.41562 0.39483,0.59583 0.31248,0.25935 0.70554,-0.37417 1.88499,-3.03826 l 1.49019,-3.36594 2.39001,0 2.38998,0 0.0804,7.47898 c 0.0621,5.78326 -0.006,7.53373 -0.3,7.72041 -0.44826,0.28452 -2.6745,0.32997 -3.35583,0.0685 -0.40002,-0.1535 -0.47454,-0.81294 -0.47454,-4.19999 0,-2.20985 -0.11016,-4.01791 -0.2448,-4.01791 -0.13464,0 -0.55737,0.77625 -0.93942,1.725 -1.116,2.77132 -1.37841,3.07562 -2.64771,3.07041 -0.61494,-0.002 -1.27164,-0.10378 -1.45935,-0.225 -0.18771,-0.12122 -0.70647,-1.09791 -1.15281,-2.17041 -0.44637,-1.0725 -0.93405,-2.07825 -1.08372,-2.235 -0.16356,-0.17126 -0.27219,1.27137 -0.27219,3.615 0,2.63334 -0.11691,4.01692 -0.36,4.26 -0.40368,0.40369 -2.88354,0.48186 -3.47037,0.10939 z m 33.56187,-0.16143 c -0.24099,-0.29037 -0.31827,-2.66016 -0.26172,-8.025 l 0.0802,-7.61296 1.95,0 1.95,0 0.0802,7.61296 c 0.0566,5.36484 -0.0207,7.73463 -0.26172,8.025 -0.20223,0.24368 -0.92487,0.41204 -1.7685,0.41204 -0.84363,0 -1.56627,-0.16836 -1.7685,-0.41204 z m 19.5,0 c -0.24099,-0.29037 -0.31827,-2.66016 -0.26172,-8.025 l 0.0802,-7.61296 1.95,0 1.95,0 0.0868,2.45505 0.0868,2.45504 1.26321,-0.57346 c 2.42562,-1.10117 4.9209,-0.46982 5.96274,1.50869 0.45828,0.87032 0.55044,1.75177 0.55044,5.265 0,2.88198 -0.11412,4.33381 -0.36,4.57968 -0.198,0.198 -0.981,0.36 -1.74,0.36 -0.759,0 -1.542,-0.162 -1.74,-0.36 -0.24033,-0.24033 -0.36,-1.56666 -0.36,-3.99 0,-3.99872 -0.13611,-4.35 -1.68546,-4.35 -1.91787,0 -1.91454,-0.007 -1.91454,4.1721 0,2.5617 -0.11781,3.92572 -0.36,4.1679 -0.49857,0.49857 -3.08337,0.46023 -3.5085,-0.052 z m 31.19976,-2.8e-4 c -0.18819,-0.22678 -1.07271,-2.75565 -1.9656,-5.61973 -1.17423,-3.76664 -1.53606,-5.31262 -1.30779,-5.58768 0.33789,-0.40711 2.86254,-0.51717 3.43968,-0.14994 0.19113,0.12163 0.57057,1.09831 0.84315,2.17041 0.98691,3.88146 1.08597,4.19926 1.30902,4.19926 0.12465,0 0.60573,-1.18125 1.06908,-2.625 1.17207,-3.65193 1.41393,-3.97601 2.96313,-3.9704 0.69744,0.002 1.42275,0.10377 1.61181,0.225 0.18909,0.12122 0.77331,1.60415 1.29831,3.2954 0.525,1.69125 1.05249,3.075 1.17219,3.075 0.11973,0 0.53142,-1.31625 0.91488,-2.925 0.38346,-1.60875 0.83157,-3.09375 0.99579,-3.3 0.33792,-0.42444 2.86089,-0.50152 3.48447,-0.10645 0.33195,0.2103 0.11487,1.2168 -1.14753,5.32041 -0.85629,2.78357 -1.75236,5.36479 -1.99128,5.73604 -0.36321,0.56439 -0.70251,0.675 -2.07057,0.675 -1.98231,0 -2.15598,-0.20961 -3.29337,-3.975 -0.43611,-1.44375 -0.9009,-2.625 -1.03284,-2.625 -0.13197,0 -0.624,1.30056 -1.09341,2.89012 -0.46941,1.58957 -1.03791,3.07457 -1.26336,3.3 -0.54828,0.54829 -3.48021,0.54647 -3.93576,-0.002 z M 332.93295,534.45733 c -0.0924,-0.2409 -0.12481,-0.8896 -0.0719,-1.44156 0.0945,-0.98654 0.12314,-1.00511 1.68824,-1.09483 l 1.5921,-0.0913 -0.0921,1.44127 -0.0921,1.44127 -1.42806,0.0916 c -1.03836,0.0666 -1.47393,-0.028 -1.59614,-0.34645 z m 5.40505,-0.3146 c -0.0993,-0.39572 -0.13564,-1.03697 -0.0807,-1.425 0.091,-0.64307 0.24591,-0.70552 1.74986,-0.70552 1.50394,0 1.65884,0.0625 1.74986,0.70552 0.0549,0.38803 0.0186,1.02928 -0.0807,1.425 -0.16023,0.63838 -0.34838,0.71948 -1.66915,0.71948 -1.32077,0 -1.50893,-0.0811 -1.66915,-0.71948 z M 231.40715,530.8149 c -3.97808,-0.89192 -9.44981,-3.15325 -9.22946,-3.81431 0.0607,-0.18221 0.64346,-0.4902 1.29495,-0.68441 1.77788,-0.53002 2.73592,-1.10392 5.53451,-3.31542 3.45992,-2.73409 5.15276,-3.49149 7.80374,-3.49149 2.42169,0 5.36889,0.87221 7.10045,2.10136 0.6302,0.44734 1.51706,0.97655 1.97081,1.17603 0.94515,0.41551 1.08651,1.15212 0.27078,1.41102 -0.30928,0.0982 -0.70422,0.67658 -0.89363,1.30878 -0.51872,1.73132 -2.23137,3.50947 -4.41615,4.58503 -1.67094,0.8226 -2.32203,0.96872 -4.71241,1.05754 -1.71341,0.0637 -3.51896,-0.0641 -4.72359,-0.33413 z m 111.40225,-0.52769 c -0.3647,-0.58658 -1.87627,-9.35043 -1.65225,-9.57956 0.11,-0.1125 2.77707,-0.3001 5.92683,-0.41688 5.44257,-0.20178 5.73813,-0.18419 5.95443,0.35456 0.6996,1.74251 3.16874,9.20542 3.16874,9.57745 0,0.37256 -1.0017,0.43943 -6.58229,0.43943 -4.94149,0 -6.64042,-0.0935 -6.81546,-0.375 z m -33.40225,-40.05807 0,-28.13308 20.52265,-10.86692 c 11.28745,-5.97681 20.73593,-10.86692 20.99662,-10.86692 0.74773,0 27.28614,17.01528 27.71814,17.77167 0.3948,0.69128 11.76259,57.00969 11.76259,58.27436 0,0.67758 -0.0846,0.69753 -3.675,0.86643 -2.02125,0.0951 -9.91367,0.25369 -17.53871,0.35244 l -13.8637,0.17955 -0.16463,-0.69723 c -0.0905,-0.38348 -1.50769,-12.43004 -3.14922,-26.77015 -1.64152,-14.34011 -3.09288,-26.18121 -3.22522,-26.31356 -0.13235,-0.13234 -2.82295,1.5071 -5.97912,3.64322 l -5.7385,3.88385 -0.17979,5.7797 c -0.0989,3.17885 -0.25766,13.40721 -0.35284,22.72971 -0.0952,9.3225 -0.2339,17.16486 -0.30828,17.42746 -0.11587,0.40905 -1.04402,0.50575 -6.47849,0.675 -3.48878,0.10865 -9.49398,0.19754 -13.34487,0.19754 l -7.00163,0 0,-28.13307 z m -97.67663,24.68307 c -0.24269,-0.18923 -1.38971,-6.89051 -3.10662,-18.15 -1.49704,-9.8175 -2.72073,-18.08367 -2.71932,-18.36928 10e-4,-0.29615 0.29261,-0.57904 0.67757,-0.65834 0.37125,-0.0765 21.84987,-0.84124 47.73027,-1.69945 34.99516,-1.16047 47.10951,-1.47262 47.26693,-1.21791 0.33908,0.54864 2.24099,39.0528 1.94325,39.34123 -0.146,0.14144 -18.69295,0.40655 -41.21545,0.58914 -22.5225,0.18259 -43.02942,0.36182 -45.57094,0.39829 -2.73146,0.0392 -4.77826,-0.0563 -5.00569,-0.23368 z m 15.70359,-11.75192 c 6.14733,-0.2833 11.30965,-0.5971 11.47183,-0.69733 0.30402,-0.18789 -0.17971,-5.02267 -0.56489,-5.64589 -0.13651,-0.22088 -3.57846,-0.22478 -11.43958,-0.013 -6.18438,0.16661 -11.41307,0.35612 -11.61932,0.42112 -0.26878,0.0847 -0.375,1.01309 -0.375,3.27759 0,3.07448 0.0181,3.15959 0.675,3.166 0.37125,0.004 5.70463,-0.22521 11.85196,-0.50851 z m 30.22304,-1.03211 c 4.62,-0.1952 8.54653,-0.46799 8.72563,-0.6062 0.38514,-0.29721 -0.17774,-5.18188 -0.65177,-5.6559 -0.26212,-0.26213 -21.87756,0.15504 -22.80181,0.44006 -0.36102,0.11133 -0.83184,5.73572 -0.52209,6.23691 0.12104,0.19584 1.38459,0.23992 3.51943,0.12279 1.83184,-0.10051 7.11061,-0.34246 11.73061,-0.53766 z m 27.28233,-1.02931 c 5.43528,-0.24822 9.94763,-0.51661 10.02744,-0.59642 0.19413,-0.19414 -0.4233,-5.50376 -0.66852,-5.74899 -0.2209,-0.2209 -22.95023,0.36773 -23.18288,0.60038 -0.0842,0.0842 -0.2312,1.46113 -0.32658,3.05976 -0.20431,3.42458 -0.16553,3.47625 2.45788,3.27527 0.99568,-0.0763 6.25738,-0.34178 11.69266,-0.59 z m -54.19293,-7.91822 c 4.17417,-0.13598 7.67583,-0.33366 7.78146,-0.4393 0.25675,-0.25674 -0.50421,-5.65182 -0.84809,-6.01287 -0.26145,-0.2745 -21.6833,0.59221 -22.84777,0.9244 -0.45145,0.12879 -0.525,0.53919 -0.525,2.92955 0,1.52888 0.0933,2.87308 0.20732,2.98711 0.11403,0.11403 2.10528,0.1288 4.425,0.0328 2.31973,-0.096 7.63291,-0.28575 11.80708,-0.42173 z m 28.21641,-1.21195 c 4.34819,-0.14746 7.97333,-0.33563 8.05587,-0.41817 0.0825,-0.0825 -0.0352,-1.47492 -0.26166,-3.09419 l -0.41172,-2.94413 -5.39415,0.093 c -2.96678,0.0512 -8.22915,0.25367 -11.69415,0.45 l -6.3,0.35696 -0.0874,2.67626 c -0.0481,1.47194 -0.0172,2.85926 0.0686,3.08293 0.12513,0.3261 0.94496,0.37287 4.13743,0.23604 2.18975,-0.0939 7.53898,-0.29129 11.88718,-0.43874 z m 27.15873,-1.20019 c 4.4355,-0.14596 8.17986,-0.3807 8.32081,-0.52165 0.30099,-0.30099 -0.53646,-5.83812 -0.91871,-6.07436 -0.27786,-0.17173 -22.11106,0.83053 -22.74164,1.04396 -0.39557,0.13389 -0.56306,5.5577 -0.18335,5.93741 0.10541,0.1054 1.82666,0.12153 3.825,0.0358 1.99834,-0.0857 7.26239,-0.27523 11.69789,-0.4212 z m 111.08757,23.4687 c -0.26529,-0.44778 -10.10211,-38.42396 -10.10211,-39.00035 0,-0.50728 0.26777,-0.61676 1.875,-0.76665 1.03125,-0.0962 21.42834,-1.29442 45.32686,-2.66277 40.92305,-2.34312 43.47386,-2.45783 43.82975,-1.97112 0.20784,0.28424 3.65784,10.32001 7.66671,22.30171 5.90328,17.64381 7.20927,21.8353 6.87024,22.04996 -0.50883,0.3222 -95.27578,0.37107 -95.46645,0.0492 z m 15.22348,-15.83485 c 5.26657,-0.24273 9.64707,-0.5128 9.73443,-0.60017 0.18776,-0.18775 -0.45411,-5.53407 -0.6931,-5.77306 -0.20225,-0.20224 -22.9729,0.43906 -23.18687,0.65303 -0.24111,0.24111 -0.48232,5.48084 -0.27694,6.01603 0.15456,0.40278 0.55545,0.45256 2.51538,0.31232 1.28233,-0.0918 6.64052,-0.36542 11.9071,-0.60815 z m 26.5626,-0.90075 c 5.35601,-0.24518 9.85368,-0.56126 9.99481,-0.7024 0.30308,-0.30308 -0.30296,-5.16137 -0.69374,-5.5614 -0.29911,-0.30618 -22.54042,0.2352 -23.0684,0.56151 -0.33728,0.20845 -0.46607,5.91769 -0.14083,6.24292 0.099,0.099 1.07776,0.11819 2.175,0.0426 1.09723,-0.0756 6.37716,-0.33804 11.73316,-0.58323 z m 38.63681,-0.62848 c 0.37125,-0.0995 0.6756,-0.3339 0.67632,-0.52091 0,-0.187 -0.561,-1.74085 -1.24827,-3.453 l -1.24959,-3.11298 -6.92673,0.22324 c -3.8097,0.12279 -8.81673,0.30863 -11.12673,0.41299 l -4.2,0.18974 -0.0851,3.225 -0.0851,3.225 11.78516,-0.004 c 6.48183,-0.002 12.08889,-0.0855 12.46014,-0.18499 z m -65.925,-8.23839 c 5.3625,-0.18247 9.85815,-0.43334 9.99033,-0.55748 0.28121,-0.2641 -0.53586,-5.68058 -0.91395,-6.05866 -0.22357,-0.22358 -12.16632,0.25115 -20.40138,0.81097 l -2.775,0.18864 0,2.972 0,2.972 2.175,0.002 c 1.19625,0.001 6.5625,-0.14715 11.925,-0.32962 z m 28.2,-1.20304 c 5.5275,-0.18612 10.14588,-0.42552 10.26306,-0.532 0.24983,-0.22702 -0.59248,-5.77839 -0.92851,-6.11949 -0.20302,-0.20609 -14.15219,0.36931 -20.65955,0.8522 l -2.475,0.18367 0,2.97306 0,2.97307 1.875,0.004 c 1.03125,0.002 6.3975,-0.14833 11.925,-0.33445 z m 25.65,-1.20073 c 5.28,-0.18534 9.70329,-0.43166 9.82953,-0.54738 0.12621,-0.11573 -0.40344,-1.58538 -1.17702,-3.26589 l -1.40649,-3.05549 -1.37301,0.008 c -2.62659,0.0148 -17.97651,1.12814 -18.2987,1.32727 -0.35205,0.21758 -0.46413,5.32521 -0.12431,5.66502 0.27093,0.27093 1.44102,0.2587 12.55,-0.13124 z m 32.76255,27.55624 c -0.53847,-0.40215 -15.31497,-38.81659 -15.07839,-39.19934 0.33597,-0.54363 103.18395,-0.92755 103.72431,-0.38719 0.14292,0.14291 1.70088,9.0664 3.46215,19.82999 2.73336,16.70421 3.13842,19.61058 2.76585,19.84625 -0.26091,0.16506 -19.32693,0.27795 -47.40414,0.2807 -37.11213,0.004 -47.073,-0.0741 -47.46978,-0.37041 z m 26.30649,-17.04442 c 0.26277,-0.24285 -0.22914,-5.89068 -0.54012,-6.20166 -0.16854,-0.16854 -22.61829,0.48952 -23.20392,0.68017 -0.2646,0.0862 -0.375,0.94908 -0.375,2.9315 0,1.54518 0.074,2.88345 0.16452,2.97393 0.26472,0.26473 23.65839,-0.11023 23.95452,-0.38394 z m 28.67499,-0.76347 c 0.34068,-0.35236 -0.2772,-5.57136 -0.70962,-5.99382 -0.49962,-0.4881 -23.00625,0.33047 -23.33526,0.84871 -0.13197,0.2079 -0.24204,1.57854 -0.24456,3.04587 l -0.005,2.66787 12.01788,-0.15076 c 6.60984,-0.0829 12.13413,-0.27096 12.27615,-0.41787 z m 27.97341,-0.68682 c 0.2397,-0.21516 -0.33981,-5.50019 -0.65991,-6.01812 -0.14337,-0.23194 -3.46632,-0.22114 -11.68269,0.038 l -11.48238,0.36211 -0.27123,0.7134 c -0.32088,0.84402 -0.36576,4.97982 -0.0574,5.28821 0.26307,0.26308 23.85048,-0.11151 24.15357,-0.38358 z m -64.63263,-8.3217 c 4.33665,-0.10872 7.94403,-0.29345 8.01639,-0.41051 0.19578,-0.3168 -0.43686,-5.50372 -0.70386,-5.77072 -0.12648,-0.12649 -5.42013,-0.12814 -11.76366,-0.004 l -11.53368,0.2263 -0.23448,2.83395 c -0.12897,1.55867 -0.15972,3.02871 -0.0684,3.26677 0.13851,0.36097 0.84972,0.40151 4.28445,0.24418 2.26512,-0.10375 7.66656,-0.27759 12.00321,-0.38631 z m 32.11635,-0.60662 3.10116,-0.18735 -0.19188,-2.13231 c -0.10554,-1.17277 -0.26304,-2.50356 -0.35001,-2.95731 l -0.1581,-0.825 -10.55118,0.0173 c -5.80314,0.01 -11.09115,0.11256 -11.75115,0.229 l -1.2,0.21172 -0.174,2.84599 c -0.0957,1.5653 -0.10962,2.96642 -0.031,3.1136 0.14391,0.26926 15.35436,0.0439 21.30612,-0.31563 z m 20.74884,-0.25349 c 4.8675,-0.0928 9.50739,-0.24651 10.31085,-0.34165 l 1.46085,-0.17299 -0.20175,-2.44192 c -0.11094,-1.34305 -0.27807,-2.69982 -0.37134,-3.01504 -0.16446,-0.55575 -0.52032,-0.56719 -11.73987,-0.37746 -8.79471,0.14871 -11.62776,0.2862 -11.80992,0.57312 -0.30189,0.47555 -0.32598,5.75029 -0.0276,6.04866 0.12165,0.12165 0.9654,0.14801 1.875,0.0586 0.9096,-0.0894 5.63631,-0.23852 10.50381,-0.33129 z m -330.55752,-12.2473 c -0.32385,-0.39021 -0.33387,-1.07338 -0.0539,-3.67398 0.18917,-1.75704 0.28534,-3.25324 0.21371,-3.32488 -0.0716,-0.0716 -0.65771,0.14468 -1.30238,0.4807 -1.58213,0.82465 -3.48817,1.04358 -5.63034,0.64672 -2.80749,-0.52013 -4.30645,-1.41247 -7.0696,-4.2086 -2.81365,-2.84723 -4.82321,-5.97411 -6.48003,-10.08296 -1.46099,-3.6232 -1.38143,-3.94087 0.71867,-2.86948 1.63942,0.83637 3.06702,1.15452 7.4571,1.66185 2.25503,0.2606 4.69649,0.73687 5.69779,1.11151 2.37035,0.88686 4.75348,3.28505 6.12733,6.16606 0.56603,1.18697 1.1114,2.16572 1.21195,2.175 0.10054,0.009 0.55662,-1.56937 1.01351,-3.50812 1.02735,-4.35946 2.74508,-9.77911 4.34202,-13.69961 0.66642,-1.63603 1.21166,-3.08306 1.21166,-3.21561 0,-0.13254 -1.04625,-0.16245 -2.325,-0.0664 -4.31033,0.3236 -7.7132,-0.79291 -10.67968,-3.50411 -1.78743,-1.63361 -4.15026,-4.90375 -5.51969,-7.63922 -1.87321,-3.74178 -3.60673,-9.15 -2.93288,-9.15 0.0785,0 0.58476,0.27224 1.125,0.60499 1.7148,1.05619 4.73782,1.80374 9.18183,2.27054 4.53702,0.47656 6.30262,0.9195 8.33549,2.09113 1.70463,0.98246 3.96161,3.54992 5.21493,5.93234 0.5775,1.09776 1.1175,1.99618 1.2,1.99649 0.0825,3e-4 0.80255,-1.15033 1.60012,-2.55696 1.98514,-3.50111 5.23797,-8.40845 7.88904,-11.90172 1.21596,-1.60225 2.21084,-3.02238 2.21084,-3.15583 0,-0.13345 -0.97884,-0.19321 -2.1752,-0.1328 -2.64746,0.13369 -6.80027,-0.7753 -9.03535,-1.9777 -4.16867,-2.24261 -7.62211,-7.89549 -9.34453,-15.29596 -0.71759,-3.08317 -1.38944,-8.85 -1.06844,-9.171 0.18243,-0.18243 0.77347,0.14155 1.62391,0.89014 1.98246,1.74503 3.83237,2.64271 9.20852,4.4685 5.45845,1.85374 6.94979,2.62511 8.95818,4.6335 2.36491,2.36491 4.53291,7.78062 4.53291,11.32331 0,0.86956 0.0703,1.58103 0.15626,1.58103 0.086,0 2.75988,-2.59875 5.94208,-5.775 3.1822,-3.17625 6.54782,-6.3825 7.47917,-7.125 1.85561,-1.47936 2.13649,-2.1 0.95039,-2.1 -2.62974,0 -9.8625,-3.50443 -12.41826,-6.01692 -6.04874,-5.94632 -8.22486,-16.88467 -6.41785,-32.25952 0.26305,-2.23811 0.5802,-2.57948 1.39745,-1.50413 3.10052,4.07972 4.96542,5.71403 9.6269,8.43659 7.56757,4.41987 10.06301,6.34455 11.98998,9.24766 2.29857,3.46295 3.21955,7.27273 3.22028,13.32132 2.7e-4,2.18625 0.0793,3.975 0.17558,3.975 0.0963,0 1.744,-1.05902 3.66156,-2.35336 4.54212,-3.06594 9.36026,-5.90279 13.83543,-8.14613 1.98056,-0.99282 3.60103,-1.87398 3.60103,-1.95813 0,-0.0841 -0.96473,-1.06186 -2.14385,-2.17269 -2.52228,-2.3762 -3.85337,-4.11239 -5.94168,-7.74998 -3.74758,-6.52787 -4.26916,-13.1804 -1.6676,-21.26971 1.137,-3.5354 4.26333,-9.70134 6.99704,-13.8 3.40152,-5.0999 8.90542,-11.85 9.66227,-11.85 0.16533,0 0.29382,0.97237 0.29382,2.22361 0,4.8952 1.02598,8.2108 5.2532,16.97639 4.48309,9.29617 5.14451,11.61267 4.8651,17.03914 -0.24036,4.66804 -1.65965,8.60936 -4.9226,13.66989 -0.73019,1.13247 -1.26704,2.11963 -1.19299,2.19368 0.074,0.074 2.07248,-0.47902 4.44096,-1.22905 8.37669,-2.65264 17.59412,-4.50053 26.35357,-5.28329 2.06099,-0.18417 3.78134,-0.36896 3.82302,-0.41063 0.0417,-0.0417 -0.32831,-1.18298 -0.82219,-2.53624 -1.30868,-3.58587 -1.79807,-6.91963 -1.79807,-12.24858 0,-5.09349 0.39701,-7.50157 1.7901,-10.85794 3.70009,-8.91464 13.08621,-17.18583 27.10988,-23.88963 6.28804,-3.0059 13.10002,-5.53854 13.10002,-4.87047 0,0.0855 -0.59912,1.28438 -1.33137,2.66425 -2.79547,5.26787 -3.60801,9.37728 -4.06493,20.55835 -0.16968,4.15222 -0.51576,8.74222 -0.76906,10.2 -1.509,8.68431 -6.07775,15.07539 -14.24571,19.92789 -1.14891,0.68255 -2.08893,1.33173 -2.08893,1.44261 0,0.18802 11.06591,1.30563 16.8,1.69673 1.4025,0.0957 2.82931,0.24079 3.1707,0.3225 0.50161,0.12007 0.84126,-0.20877 1.77036,-1.71403 2.23548,-3.62176 6.88477,-7.61388 12.70553,-10.90963 6.0242,-3.41092 9.85277,-4.47289 16.10341,-4.46674 9.85507,0.01 20.05537,3.85396 32.39354,12.20843 5.96496,4.03902 15.89806,12.23996 15.65581,12.92571 -0.0668,0.18909 -0.81492,0.27817 -1.85367,0.22072 -2.56713,-0.14198 -7.44824,0.45648 -10.59794,1.2994 -3.58968,0.96066 -6.46148,2.16355 -15.04774,6.30295 -10.37499,5.00173 -14.14722,6.14789 -20.20814,6.14003 -6.75351,-0.009 -14.5584,-2.80024 -20.94823,-7.49233 -2.51061,-1.84356 -3.50988,-3.16837 -4.14297,-5.49261 -0.46227,-1.69712 -0.60055,-1.89248 -1.5694,-2.2171 -3.01945,-1.01169 -17.33702,-1.98972 -29.48126,-2.01386 -8.04685,-0.016 -9.967,0.0725 -14.25,0.65653 -27.99422,3.81752 -52.39689,15.85487 -72.1707,35.60037 -11.42878,11.41243 -19.44435,23.33351 -24.81975,36.91295 -2.78606,7.03818 -4.7397,14.41566 -5.64029,21.29921 -0.20615,1.57571 -0.55254,3.01242 -0.76976,3.19269 -0.21721,0.18028 -2.1194,0.39771 -4.22707,0.4832 -3.27135,0.13268 -3.89035,0.0853 -4.22995,-0.32393 z m 57.55752,-6.7591 c 0,-0.24344 11.84475,-11.69273 25.50436,-24.65287 16.6078,-15.75735 23.41037,-21.8892 24.2835,-21.8892 0.50936,0 6.89149,4.99864 14.71214,11.52291 10.12834,8.44944 18.41341,15.80603 29.325,26.03866 7.31002,6.85516 7.83511,7.56097 4.096,5.5057 -2.40068,-1.31958 -18.75042,-11.73495 -32.671,-20.8126 -5.94,-3.87349 -11.1379,-7.24248 -11.55089,-7.48664 -0.73168,-0.43258 -1.407,-0.0374 -26.4,15.44656 -29.07317,18.01183 -27.29911,16.95077 -27.29911,16.32748 z"
         style="fill:#9ec553" />
      <path
         id="path4149"
         d="m 338.59758,586.74238 c -10.27159,-0.99425 -28.88857,-6.82933 -39.55904,-12.39891 -6.9525,-3.62894 -16.38041,-9.92175 -23.27728,-15.53681 -3.73185,-3.03827 -11.91898,-10.93762 -14.05411,-13.56009 -0.7425,-0.91198 -1.58115,-1.73902 -1.86367,-1.83787 -0.79367,-0.2777 -1.739,0.39187 -1.93469,1.3703 -0.0973,0.48629 -0.69482,1.47263 -1.32793,2.19188 -2.21027,2.51099 -5.92546,3.38096 -10.48923,2.45623 -2.56052,-0.51883 -7.0385,-2.08599 -7.33602,-2.56739 -0.0894,-0.14474 0.45192,-0.53501 1.20305,-0.86727 0.75114,-0.33226 2.70765,-1.61499 4.34782,-2.85051 1.64017,-1.23552 3.49255,-2.38815 4.1164,-2.56139 2.54104,-0.70565 5.74321,-0.1309 8.29822,1.48944 1.43189,0.90808 2.12674,1.0927 2.40683,0.63951 0.0859,-0.139 -0.8236,-1.59025 -2.02112,-3.225 -1.19751,-1.63476 -2.89895,-4.10837 -3.78096,-5.49691 -2.71654,-4.27662 -6.6066,-12.4899 -7.11167,-15.01521 -0.18074,-0.90374 -0.17276,-0.91009 1.13047,-0.89937 1.48726,0.0122 7.09157,0.7135 7.27444,0.91024 0.0659,0.0709 0.89019,1.61396 1.8317,3.42896 6.30533,12.15515 16.61719,23.56137 31.05636,34.35222 6.18923,4.62541 14.30564,9.8321 18.45,11.8357 7.2374,3.49895 16.13512,6.56584 22.75756,7.84414 1.46166,0.28214 2.81166,0.70698 3,0.94407 2.34563,2.9529 5.17492,5.1846 10.00685,7.89326 1.36259,0.76383 2.38926,1.47694 2.28151,1.58469 -0.2377,0.2377 -2.11407,0.19468 -5.40549,-0.12391 z m -35.94043,-0.46345 c -1.47252,-0.37266 -1.50296,-0.42042 -0.70482,-1.10607 0.42297,-0.36336 1.26682,-1.28936 1.87523,-2.05778 0.6084,-0.76842 1.55936,-1.61217 2.11323,-1.875 1.17811,-0.55905 3.26735,-0.62061 4.65424,-0.13714 0.89134,0.31072 0.96333,0.42747 0.81756,1.32576 -0.39945,2.46148 -2.32682,3.73953 -5.88087,3.89961 -1.25102,0.0564 -2.54457,0.0341 -2.87457,-0.0494 z m -16.46981,-4.63256 c -0.97339,-0.15058 -1.84678,-0.35074 -1.94085,-0.44482 -0.0941,-0.0941 0.24121,-0.49368 0.74507,-0.88801 0.50386,-0.39433 1.50044,-1.47437 2.21463,-2.40009 1.81164,-2.34821 3.46154,-3.26191 5.82546,-3.22606 1.01549,0.0154 2.39922,0.24922 3.07495,0.51959 l 1.2286,0.49159 -0.28104,1.25081 c -0.82486,3.67122 -5.21929,5.57064 -10.86682,4.69699 z m -9.85117,-7.794 c -1.6372,-0.27568 -4.19499,-1.07718 -5.42799,-1.7009 l -0.84897,-0.42946 1.66567,-1.00302 c 0.91613,-0.55166 2.24316,-1.4708 2.94898,-2.04254 2.08404,-1.68817 3.19044,-2.14255 5.18329,-2.12869 1.83834,0.0128 3.982,0.74546 5.36587,1.83401 0.67892,0.53404 0.68102,0.55564 0.17068,1.75729 -0.71862,1.69205 -2.70142,3.31228 -4.53462,3.70543 -1.6551,0.35496 -2.45341,0.35635 -4.52291,0.008 z m -15.52902,-11.2834 c -2.13915,-0.42538 -4.42874,-1.11626 -5.9492,-1.79515 l -1.7008,-0.75943 1.45576,-0.74748 c 0.80067,-0.4111 2.56374,-1.59285 3.91794,-2.6261 1.6295,-1.2433 2.95574,-2.00291 3.92164,-2.24613 2.20986,-0.55645 5.00309,0.0702 7.46617,1.67503 l 1.24323,0.81003 -0.81564,1.71245 c -0.80654,1.69336 -1.53391,2.40128 -3.49905,3.40548 -1.01678,0.51959 -4.59712,0.85823 -6.04005,0.5713 z m 183.96,-10.96676 c -0.25966,-0.25966 -0.36,-2.33333 -0.36,-7.44 0,-5.10666 0.10034,-7.18034 0.36,-7.44 0.52936,-0.52936 2.35642,-0.43813 3.00643,0.15012 0.53157,0.48106 0.6256,0.47679 1.65099,-0.075 1.35559,-0.72948 3.54373,-0.7365 4.64503,-0.0149 2.16831,1.42073 2.76498,6.24772 1.08591,8.78495 -1.15562,1.74626 -2.55541,2.31751 -5.09947,2.08106 l -2.04889,-0.19041 0,1.8921 c 0,2.18461 -0.29458,2.61209 -1.8,2.61209 -0.594,0 -1.242,-0.162 -1.44,-0.36 z m 6.566,-6.62454 c 0.82698,-0.63494 1.174,-1.62389 1.174,-3.34574 0,-2.13904 -0.63399,-2.86972 -2.49,-2.86972 -0.7095,0 -1.452,0.162 -1.65,0.36 -0.38317,0.38317 -0.52339,5.67661 -0.16,6.04 0.33769,0.33769 2.6214,0.20288 3.126,-0.18454 z m -141.35511,2.78386 c -2.55472,-0.43801 -4.36223,-1.6766 -5.47149,-3.74932 -0.92518,-1.72876 -0.91898,-5.77991 0.0115,-7.5284 1.82254,-3.42469 6.30934,-4.88409 10.90963,-3.54853 1.82269,0.52916 2.37945,1.05791 2.37945,2.25973 0,1.70281 -0.20111,1.78717 -2.00205,0.83982 -1.26508,-0.66547 -2.06114,-0.87235 -3.35342,-0.8715 -3.09441,0.002 -4.84139,1.76349 -4.84341,4.88352 -0.002,3.38004 1.43602,5.03573 4.57123,5.26251 l 1.76159,0.12742 -0.092,-1.61228 -0.092,-1.61229 -1.26003,-0.0915 c -1.35627,-0.0985 -1.81092,-0.68971 -1.43682,-1.86839 0.18103,-0.57037 0.40113,-0.60441 3.39521,-0.525 l 3.20164,0.0849 0.0855,3.25665 c 0.0502,1.91166 -0.0413,3.40938 -0.22145,3.62646 -0.6297,0.75874 -5.40204,1.4333 -7.54313,1.06621 z m 23.82675,-0.13706 c -1.74417,-0.75868 -2.03557,-1.60278 -2.15162,-6.23265 -0.0741,-2.9561 0.001,-4.27493 0.26173,-4.58895 0.44009,-0.53027 2.42795,-0.58495 2.93225,-0.0807 0.2409,0.24091 0.36,1.57846 0.36,4.04309 0,3.60214 0.0166,3.69393 0.7535,4.17679 0.50826,0.33303 1.0604,0.43234 1.69641,0.30514 1.67352,-0.33471 1.75009,-0.5321 1.75009,-4.51175 0,-4.07304 0.12357,-4.37327 1.8,-4.37327 0.594,0 1.242,0.162 1.44,0.36 0.25108,0.25109 0.36,1.86667 0.36,5.34 0,3.47334 -0.10892,5.08892 -0.36,5.34 -0.52144,0.52144 -2.35252,0.44166 -2.98422,-0.13002 -0.50255,-0.4548 -0.64842,-0.44401 -2.02924,0.15 -1.71646,0.7384 -2.50108,0.77985 -3.8289,0.20228 z m 31.3026,0.026 c -2.86815,-0.80739 -4.20815,-2.60513 -4.17987,-5.60769 0.0347,-3.68437 2.29672,-5.79754 6.22898,-5.81909 3.48943,-0.0191 5.27843,1.55803 5.36027,4.72548 l 0.0404,1.563 -3.98779,0.0838 c -4.24747,0.0892 -4.66594,0.25128 -3.97642,1.53966 0.77348,1.44524 3.73642,1.98492 5.91048,1.07654 1.69212,-0.70701 1.95337,-0.61183 1.84684,0.67287 -0.0716,0.86384 -0.2724,1.20836 -0.87032,1.49346 -1.22942,0.58623 -4.72608,0.73545 -6.37255,0.27196 z m 3.94321,-7.59484 c 0.1377,-0.9675 -0.94164,-1.89346 -2.20708,-1.89346 -1.61315,0 -3.34552,2.0099 -2.16137,2.50762 0.20625,0.0867 1.2525,0.1317 2.325,0.1 1.75642,-0.0519 1.95928,-0.1228 2.04345,-0.71417 z m 29.42744,7.7027 c -4.65982,-0.78822 -7.03556,-5.30211 -5.50436,-10.45823 0.98459,-3.31548 4.10422,-5.09507 8.31312,-4.74221 2.78951,0.23387 3.94013,0.92036 4.06534,2.42551 0.165,1.9834 -0.0358,2.10199 -1.83732,1.08526 -1.8732,-1.05717 -3.47196,-1.17199 -4.98917,-0.3583 -1.46554,0.78598 -2.11873,2.18874 -2.11738,4.54714 0.002,3.25785 1.48171,4.93325 4.35743,4.93325 1.20294,0 1.85391,-0.18944 2.79812,-0.81428 0.67676,-0.44786 1.36836,-0.81429 1.5369,-0.81429 0.16854,0 0.30643,0.67153 0.30643,1.4923 0,1.32717 -0.092,1.53985 -0.83105,1.92205 -0.72393,0.37435 -4.07661,1.14848 -4.54905,1.05036 -0.0934,-0.0194 -0.7905,-0.14026 -1.54901,-0.26856 z m 10.92675,-0.13389 c -0.52379,-0.22784 -1.18095,-0.76314 -1.46035,-1.18955 -0.56971,-0.86949 -0.64578,-2.82258 -0.14628,-3.75591 0.47004,-0.87828 2.35712,-1.75444 4.24047,-1.96882 2.50478,-0.28513 2.96852,-0.42522 2.96852,-0.89679 0,-0.93346 -1.4004,-1.4395 -3.53299,-1.27666 -1.10936,0.0847 -2.21951,0.20384 -2.46701,0.26474 -0.32809,0.0807 -0.47506,-0.19131 -0.54251,-1.00417 -0.083,-1.00076 -0.006,-1.13814 0.75,-1.34204 1.50923,-0.40692 6.1698,-0.26718 7.11553,0.21335 1.82701,0.92831 2.11641,1.72893 2.23162,6.17364 0.0745,2.87344 -9e-4,4.16427 -0.26173,4.47849 -0.49278,0.59376 -2.52422,0.56729 -3.13233,-0.0408 -0.44304,-0.44303 -0.60187,-0.43083 -1.95204,0.15 -1.69859,0.73072 -2.48585,0.77091 -3.8109,0.19454 z m 5.11689,-2.34922 c 0.38669,-0.28276 0.50312,-0.7069 0.43234,-1.575 l -0.0969,-1.18805 -1.4495,0.0507 c -1.61627,0.0565 -2.6005,0.71347 -2.6005,1.73583 0,0.35392 0.162,0.8055 0.36,1.0035 0.47815,0.47815 2.68804,0.46039 3.35453,-0.027 z m 46.78312,2.34922 c -1.74418,-0.75868 -2.03558,-1.60278 -2.15163,-6.23265 -0.0741,-2.9561 0.001,-4.27493 0.26173,-4.58895 0.44009,-0.53027 2.42795,-0.58496 2.93225,-0.0807 0.2409,0.2409 0.36,1.57846 0.36,4.04309 0,3.60214 0.0165,3.69393 0.75351,4.17679 0.50826,0.33302 1.06038,0.43234 1.69641,0.30514 1.67352,-0.33471 1.75008,-0.5321 1.75008,-4.51175 0,-4.07304 0.12357,-4.37327 1.8,-4.37327 0.594,0 1.242,0.162 1.44,0.36 0.50529,0.50528 0.50529,10.17472 0,10.68 -0.52143,0.52144 -2.35251,0.44166 -2.98422,-0.13002 -0.50256,-0.4548 -0.64842,-0.44401 -2.02923,0.15 -1.71648,0.7384 -2.5011,0.77985 -3.8289,0.20228 z m 13.85235,0.0522 c -1.48362,-0.36165 -1.50102,-0.37956 -1.59225,-1.64005 -0.10299,-1.42264 0.0376,-1.49334 1.63851,-0.82441 1.48017,0.61846 4.40739,0.59805 4.93227,-0.0344 0.34374,-0.41415 0.3081,-0.56041 -0.24567,-1.00884 -0.35622,-0.28845 -1.19769,-0.61241 -1.86993,-0.7199 -3.86796,-0.61852 -5.45325,-2.6912 -3.94722,-5.16088 1.08294,-1.77591 4.67796,-2.64913 7.68429,-1.86649 1.31193,0.34154 1.51221,0.49711 1.59738,1.24084 0.1734,1.51435 -0.0706,1.74289 -1.30866,1.22562 -1.46007,-0.61007 -4.30749,-0.46575 -4.75092,0.24079 -0.48399,0.77116 0.0524,1.13189 2.40765,1.6193 1.13001,0.23385 2.39205,0.67105 2.80455,0.97155 2.05245,1.49518 1.80312,4.10325 -0.51426,5.37933 -1.53798,0.8469 -4.65156,1.10995 -6.83574,0.57753 z m 39.54765,-0.0522 c -0.5238,-0.22784 -1.18095,-0.76314 -1.46034,-1.18955 -0.56973,-0.86949 -0.64581,-2.82258 -0.14631,-3.75591 0.47004,-0.87828 2.35713,-1.75444 4.24047,-1.96882 2.50479,-0.28512 2.96853,-0.42521 2.96853,-0.89678 0,-0.93346 -1.4004,-1.4395 -3.53298,-1.27666 -1.10937,0.0847 -2.21952,0.20384 -2.46702,0.26474 -0.32808,0.0807 -0.47505,-0.19131 -0.54252,-1.00417 -0.083,-1.00076 -0.006,-1.13814 0.75,-1.34205 1.50924,-0.40692 6.16983,-0.26717 7.11555,0.21336 1.827,0.92831 2.11641,1.72893 2.23161,6.17364 0.0745,2.87344 0,4.16427 -0.26172,4.47849 -0.49278,0.59376 -2.52423,0.56729 -3.13233,-0.0408 -0.44304,-0.44303 -0.60189,-0.43083 -1.95204,0.15 -1.6986,0.73072 -2.48586,0.7709 -3.8109,0.19454 z m 5.11689,-2.34922 c 0.38667,-0.28276 0.5031,-0.7069 0.43233,-1.575 l -0.0969,-1.18805 -1.44948,0.0507 c -1.61628,0.0565 -2.60052,0.71347 -2.60052,1.73583 0,0.35392 0.162,0.8055 0.36,1.0035 0.47814,0.47815 2.68803,0.46039 3.35454,-0.027 z m 18.63546,2.52403 c -2.50083,-0.65771 -3.88491,-2.05645 -4.3155,-4.36123 -0.47688,-2.55266 0.41457,-5.06281 2.18709,-6.15828 1.71054,-1.05717 3.95025,-1.38767 6.04152,-0.89151 l 1.78689,0.42395 0.0914,1.425 c 0.10032,1.56343 -0.11754,1.71658 -1.32057,0.92833 -1.02111,-0.66905 -3.0978,-0.68382 -4.09716,-0.0291 -1.0821,0.70891 -1.60596,2.63453 -1.13988,4.19016 0.61527,2.05353 2.66793,2.78317 4.96779,1.76583 0.78354,-0.34661 1.47498,-0.63019 1.53651,-0.63019 0.0615,0 0.11187,0.61084 0.11187,1.35742 0,1.20297 -0.0939,1.39398 -0.825,1.67862 -1.09881,0.42779 -3.90402,0.59584 -5.025,0.30103 z m 26.58807,-0.18639 c -2.46354,-0.76837 -3.70731,-2.63057 -3.70731,-5.55068 0,-3.16827 1.4574,-5.06339 4.40037,-5.722 3.25356,-0.72811 6.55929,0.71897 7.38957,3.23476 0.44499,1.34828 0.43683,3.84591 -0.0165,5.03724 -0.53895,1.4165 -1.80123,2.52586 -3.42159,3.00705 -1.80351,0.53559 -2.91186,0.53407 -4.6446,-0.006 z m 4.11942,-2.71477 c 1.22232,-1.55395 1.15755,-4.44814 -0.12837,-5.73405 -0.9831,-0.98311 -2.58558,-0.95612 -3.38247,0.057 -1.24317,1.58042 -1.05459,5.0113 0.32871,5.98019 1.03647,0.72596 2.48088,0.58838 3.18213,-0.30311 z m -247.39749,2.50408 c -0.25108,-0.25108 -0.36,-1.86666 -0.36,-5.34 0,-3.47333 0.10892,-5.08891 0.36,-5.34 0.198,-0.198 0.86989,-0.36 1.49308,-0.36 0.87848,0 1.24384,0.16903 1.62597,0.75224 l 0.49289,0.75224 0.93903,-0.57493 c 0.85864,-0.52571 1.81267,-0.7491 2.83047,-0.66275 0.27648,0.0235 0.36458,0.45167 0.3,1.4582 l -0.0914,1.425 -1.8,0.15118 c -0.99,0.0831 -1.96875,0.25987 -2.175,0.39271 -0.26344,0.16967 -0.375,1.2448 -0.375,3.61382 0,3.77046 -0.14156,4.09229 -1.8,4.09229 -0.594,0 -1.242,-0.162 -1.44,-0.36 z m 25.2,0 c -0.25109,-0.25108 -0.36,-1.86666 -0.36,-5.34 0,-3.47333 0.10891,-5.08891 0.36,-5.34 0.51914,-0.51914 2.3514,-0.44267 2.97788,0.12428 0.49436,0.44739 0.65908,0.4329 2.16238,-0.19018 2.64534,-1.09644 4.94953,-0.25333 5.58773,2.04455 0.442,1.59145 0.40529,8.24807 -0.048,8.70135 -0.198,0.198 -0.846,0.36 -1.44,0.36 -1.66578,0 -1.8,-0.31338 -1.8,-4.20266 0,-4.11749 -0.22648,-4.6337 -2.03294,-4.6337 -2.01733,0 -2.16706,0.30838 -2.16706,4.46309 0,4.07304 -0.12357,4.37327 -1.8,4.37327 -0.594,0 -1.242,-0.162 -1.44,-0.36 z m 28.8,0 c -0.25108,-0.25108 -0.36,-1.86666 -0.36,-5.34 0,-3.47333 0.10892,-5.08891 0.36,-5.34 0.198,-0.198 0.86989,-0.36 1.49308,-0.36 0.87848,0 1.24384,0.16903 1.62597,0.75224 l 0.49289,0.75224 0.93903,-0.57493 c 0.85864,-0.52571 1.81267,-0.7491 2.83047,-0.66275 0.27648,0.0235 0.36458,0.45167 0.3,1.4582 l -0.0914,1.425 -1.8,0.15118 c -0.99,0.0831 -1.96875,0.25987 -2.175,0.39271 -0.26344,0.16967 -0.375,1.2448 -0.375,3.61382 0,3.77046 -0.14156,4.09229 -1.8,4.09229 -0.594,0 -1.242,-0.162 -1.44,-0.36 z m 46.8,0 c -0.25109,-0.25108 -0.36,-1.86666 -0.36,-5.34 0,-3.47333 0.10891,-5.08891 0.36,-5.34 0.52936,-0.52936 2.35642,-0.43813 3.00643,0.15012 0.52418,0.47437 0.63093,0.47582 1.52362,0.0206 2.11133,-1.07666 3.49476,-1.00963 4.98147,0.24136 l 0.85716,0.72124 1.81194,-0.93449 c 1.43635,-0.74078 2.02822,-0.89393 2.85523,-0.73878 2.52933,0.4745 3.20415,2.08243 3.20415,7.63471 0,3.61224 -0.15193,3.94523 -1.8,3.94523 -1.66945,0 -1.8,-0.30897 -1.8,-4.26 0,-3.19841 -0.0609,-3.60091 -0.63125,-4.17125 -0.47841,-0.47841 -0.85283,-0.58693 -1.54641,-0.44822 -1.64254,0.32851 -1.72234,0.5373 -1.72234,4.5062 0,4.07304 -0.12357,4.37327 -1.8,4.37327 -1.66945,0 -1.8,-0.30897 -1.8,-4.26 0,-3.19841 -0.0609,-3.60091 -0.63125,-4.17125 -0.47841,-0.47841 -0.85283,-0.58693 -1.54641,-0.44822 -1.64254,0.32851 -1.72234,0.5373 -1.72234,4.5062 0,4.07304 -0.12357,4.37327 -1.8,4.37327 -0.594,0 -1.242,-0.162 -1.44,-0.36 z m 71.70945,0.10927 c -0.29385,-0.18651 -0.36222,-1.87733 -0.3,-7.42041 l 0.0805,-7.17886 1.91952,-0.0905 c 1.11045,-0.0523 2.05755,0.0475 2.24697,0.23696 0.18009,0.18009 0.94221,1.70509 1.69362,3.3889 0.75141,1.6838 1.56276,3.09798 1.80303,3.14262 0.29607,0.055 0.9219,-1.00809 1.94181,-3.29842 l 1.50495,-3.37959 2.09505,0 2.09505,0 0.0806,7.17886 c 0.0877,7.8104 0.12006,7.65809 -1.63101,7.66655 -1.91979,0.009 -1.89954,0.0589 -1.89954,-4.6598 0,-2.61196 -0.12066,-4.37478 -0.30738,-4.49016 -0.17292,-0.10687 -0.59712,0.50875 -0.96975,1.40729 -1.53891,3.71084 -1.75821,3.99726 -3.06018,3.99726 l -1.18731,0 -1.18608,-2.775 c -0.65232,-1.52625 -1.29927,-2.775 -1.43766,-2.775 -0.13842,0 -0.25164,1.9305 -0.25164,4.29 0,2.93667 -0.11358,4.40357 -0.36,4.65 -0.40578,0.40579 -2.29035,0.47753 -2.87055,0.10927 z m 33.56187,-0.16154 c -0.24063,-0.28994 -0.3183,-2.58216 -0.26175,-7.725 l 0.0804,-7.31273 1.47099,-0.0933 c 0.97365,-0.0618 1.55529,0.0397 1.72038,0.3 0.41442,0.65347 0.32037,14.46157 -0.10137,14.88331 -0.49125,0.49127 -2.48736,0.4554 -2.90868,-0.0523 z m 19.5,0 c -0.24063,-0.28994 -0.3183,-2.58216 -0.26175,-7.725 l 0.0804,-7.31273 1.47099,-0.0933 c 0.97365,-0.0618 1.55529,0.0397 1.72038,0.3 0.13719,0.21632 0.25152,1.38781 0.25404,2.6033 0.005,2.47053 -0.20277,2.35769 2.46981,1.34044 1.28718,-0.48993 1.52901,-0.49848 2.67282,-0.0945 2.1957,0.77541 2.49618,1.50196 2.61594,6.32488 0.11724,4.7219 0,5.06924 -1.7307,5.06924 -1.69128,0 -1.82328,-0.30427 -1.82328,-4.20266 0,-4.11749 -0.22647,-4.6337 -2.03295,-4.6337 -2.01732,0 -2.16705,0.30838 -2.16705,4.46309 0,2.44143 -0.11943,3.77269 -0.36,4.01327 -0.49125,0.49127 -2.48736,0.4554 -2.90868,-0.0523 z m 31.05621,-0.26273 c -0.62856,-0.99529 -3.25404,-9.81898 -3.06678,-10.30691 0.17076,-0.44505 2.16024,-0.58009 2.77575,-0.18841 0.19056,0.12127 0.73056,1.69541 1.2,3.49809 0.46941,1.80267 1.01469,3.33012 1.2117,3.39431 0.22596,0.0736 0.75321,-1.13068 1.42806,-3.26185 0.58842,-1.85823 1.23723,-3.48489 1.4418,-3.61482 0.47937,-0.30446 2.06352,-0.30509 2.54223,-9e-4 0.20367,0.12937 0.79515,1.64605 1.31442,3.37041 1.41204,4.68923 1.54368,4.69247 2.63733,0.0648 0.38079,-1.61131 0.90618,-3.0984 1.16751,-3.30465 0.69549,-0.54892 2.43963,-0.47829 2.6646,0.1079 0.21978,0.57277 -2.81556,10.36789 -3.31188,10.68751 -0.18825,0.12122 -0.88227,0.2204 -1.54227,0.2204 -0.66,0 -1.35261,-0.0992 -1.53909,-0.2204 -0.18651,-0.12123 -0.76803,-1.56253 -1.29228,-3.2029 -0.52425,-1.64037 -1.05678,-3.16765 -1.18344,-3.39396 -0.37512,-0.67031 -0.76467,0.0715 -1.7955,3.41881 -0.56859,1.84642 -1.12398,3.11416 -1.41282,3.225 -0.26178,0.10045 -1.00179,0.18264 -1.64448,0.18264 -0.88554,0 -1.27182,-0.16349 -1.59486,-0.675 z M 333.23101,534.15228 c -0.0942,-0.24553 -0.12688,-0.76 -0.0726,-1.14325 0.0833,-0.58827 0.30032,-0.71133 1.39291,-0.79 l 1.2942,-0.0932 -0.0942,1.14319 c -0.0894,1.0852 -0.15137,1.14791 -1.2216,1.23643 -0.78594,0.065 -1.1793,-0.042 -1.29873,-0.35318 z m 5.42614,-0.19007 c -0.37369,-1.17737 0.0933,-1.8 1.35,-1.8 1.25672,0 1.72369,0.62263 1.35,1.8 -0.14716,0.46367 -0.45391,0.6 -1.35,0.6 -0.89609,0 -1.20284,-0.13633 -1.35,-0.6 z m -107.4,-3.72762 c -2.94847,-0.6755 -7.95,-2.55488 -7.95,-2.98729 0,-0.0565 0.84375,-0.5227 1.875,-1.03601 1.03125,-0.51331 2.8875,-1.74951 4.125,-2.74711 3.23385,-2.60693 5.08021,-3.45433 7.5,-3.44217 2.28664,0.0115 5.40661,0.97788 7.10419,2.20048 0.6302,0.45386 1.40537,0.92318 1.72262,1.04293 0.55966,0.21125 0.55813,0.23081 -0.0513,0.65763 -0.34543,0.24195 -0.72192,0.86728 -0.83665,1.38963 -0.29791,1.35641 -2.57756,3.66059 -4.42478,4.4724 -1.94581,0.85513 -6.34204,1.07315 -9.06413,0.44951 z m 78.62155,-12.40082 c -0.0943,-0.0944 -0.17155,-12.56594 -0.17155,-27.71464 l 0,-27.54308 0.675,-0.42995 c 2.60907,-1.66187 40.54694,-21.44797 40.8248,-21.29174 0.19261,0.10829 6.38291,4.02932 13.75622,8.71339 l 13.40602,8.5165 0.32143,1.56398 c 3.86791,18.82006 11.3161,56.81646 11.16709,56.96815 -0.11031,0.11229 -7.84301,0.30116 -17.18378,0.41971 l -16.98323,0.21555 -0.17793,-1.01972 c -0.0979,-0.56084 -1.48684,-12.56221 -3.08662,-26.66971 -1.81978,-16.04757 -3.04677,-25.80086 -3.27754,-26.05298 -0.30299,-0.33102 -1.40662,0.2902 -6.18016,3.47873 -3.19622,2.13495 -5.96641,4.07129 -6.15598,4.30299 -0.24643,0.30118 -0.43524,6.91281 -0.66234,23.1936 -0.17471,12.52479 -0.4246,22.86967 -0.55532,22.98862 -0.28219,0.25681 -25.46675,0.60995 -25.71611,0.3606 z m -97.98797,-3.14656 c -0.4819,-2.20163 -5.52265,-36.14838 -5.39072,-36.30358 0.2443,-0.2874 94.27657,-3.51207 94.57974,-3.24345 0.31317,0.27748 2.29088,38.21468 2.00871,38.53196 -0.12714,0.14296 -19.51369,0.44119 -43.08124,0.66274 -48.70781,0.45788 -48.09437,0.45339 -48.11649,0.35233 z m 17.9479,-11.17546 c 4.99481,-0.23218 9.23139,-0.51479 9.41461,-0.62802 0.35532,-0.2196 0.15928,-3.98564 -0.29521,-5.67152 l -0.24264,-0.9 -2.82912,-0.0876 c -1.55602,-0.0482 -6.87204,0.0409 -11.81338,0.19797 -8.07254,0.25658 -9.02391,0.33978 -9.375,0.81992 -0.52258,0.71467 -0.54031,6.15012 -0.0217,6.66868 0.26612,0.26612 1.16518,0.32071 3.225,0.19583 1.57081,-0.0952 6.94268,-0.36311 11.9375,-0.59528 z m 27.20731,-0.91282 c 5.27384,-0.24437 9.71751,-0.57301 9.87481,-0.73032 0.46239,-0.46239 -0.38417,-6.31394 -0.94456,-6.52898 -0.25155,-0.0965 -5.64385,-0.0458 -11.9829,0.11271 -9.52723,0.23824 -11.57334,0.36378 -11.80125,0.72404 -0.43805,0.69247 -0.35928,6.80484 0.0901,6.99208 0.20625,0.086 1.455,0.0929 2.775,0.0155 1.32,-0.0774 6.71496,-0.34068 11.98879,-0.58504 z m 26.71121,-0.91869 c 7.83859,-0.35005 11.21795,-0.60539 11.50145,-0.86903 0.33062,-0.30745 0.33746,-0.88171 0.0388,-3.25447 -0.19946,-1.58463 -0.53513,-3.02429 -0.74594,-3.19925 -0.49633,-0.41191 -23.22096,0.23454 -23.76931,0.67617 -0.39961,0.32184 -0.55684,6.54672 -0.175,6.92855 0.28171,0.28172 0.75486,0.27157 13.15,-0.28197 z m -54.45,-7.94547 c 5.1975,-0.18036 9.57158,-0.4438 9.72018,-0.58542 0.30916,-0.29465 -0.58141,-6.56837 -0.99047,-6.97742 -0.28456,-0.28457 -23.19258,0.80832 -23.71534,1.1314 -0.18817,0.1163 -0.31437,1.51199 -0.31437,3.47659 l 0,3.28229 2.925,2.5e-4 c 1.60875,1.3e-4 7.1775,-0.14733 12.375,-0.32769 z m 28.05,-1.1992 c 6.76481,-0.23413 9.71407,-0.4408 9.98623,-0.69975 0.31467,-0.29941 0.29307,-0.96567 -0.11659,-3.59593 -0.30662,-1.9687 -0.65452,-3.28664 -0.89159,-3.37761 -0.80083,-0.30731 -23.2202,1.01995 -23.68044,1.40191 -0.33473,0.27781 -0.44761,1.03691 -0.44761,3.01022 0,1.4513 0.0819,2.85227 0.1821,3.11327 0.22644,0.5901 1.75487,0.6052 14.9679,0.14789 z m 27.3,-1.20334 c 5.445,-0.18326 10.02793,-0.45366 10.1843,-0.6009 0.39607,-0.37296 -0.36573,-6.30829 -0.87675,-6.83096 -0.34128,-0.34906 -2.16334,-0.32015 -11.95156,0.18964 -6.35188,0.33082 -11.69673,0.69287 -11.87743,0.80455 -0.35743,0.22091 -0.47488,6.22133 -0.12856,6.56765 0.27983,0.27983 3.25867,0.2534 14.65,-0.12998 z m 112.99629,22.38138 c -0.39303,-0.59787 -10.18818,-38.40658 -9.99511,-38.58055 0.23429,-0.21111 89.78002,-5.38697 90.07237,-5.20629 0.25608,0.15826 14.78484,43.62706 14.63256,43.77934 -0.28155,0.28154 -94.52476,0.289 -94.70982,0.008 z m 13.60371,-14.73319 c 7.64419,-0.34735 10.91718,-0.60046 11.20102,-0.86621 0.33205,-0.31089 0.33587,-0.87345 0.0222,-3.2708 -0.20834,-1.59244 -0.53832,-3.02773 -0.7333,-3.18955 -0.46663,-0.38726 -23.24329,0.26734 -23.76494,0.68301 -0.39965,0.31845 -0.55695,6.54339 -0.175,6.92534 0.28792,0.28792 1.44608,0.26366 13.45,-0.28179 z m 29.94012,-1.06902 c 4.4817,-0.20564 7.91703,-0.49071 8.16036,-0.67717 0.35623,-0.27297 0.36192,-0.7687 0.0374,-3.25453 -0.21058,-1.61288 -0.52049,-3.07013 -0.6887,-3.23834 -0.29378,-0.29377 -21.8483,0.14473 -23.38522,0.47575 -0.57815,0.12452 -0.65539,0.40963 -0.84834,3.13119 -0.11675,1.64681 -0.11875,3.2889 -0.004,3.64908 0.23415,0.73776 -1.40764,0.7462 16.72895,-0.086 z m 34.0443,-0.54866 c 2.7351,-3e-4 3.41763,-0.0871 3.55752,-0.45168 0.18216,-0.4747 -2.12424,-6.61957 -2.73534,-7.28766 -0.47685,-0.5213 -22.19034,0.2529 -22.74955,0.81115 -0.53985,0.53892 -0.67315,6.21591 -0.16048,6.83428 0.36263,0.43738 1.32887,0.46676 9.55343,0.29051 5.0325,-0.10784 10.67298,-0.19631 12.53442,-0.1966 z m -64.18751,-8.21083 c 7.94527,-0.27357 10.95858,-0.47498 11.12457,-0.74356 0.12522,-0.2026 0.0539,-1.54461 -0.15852,-2.98225 -0.50076,-3.38948 -0.63089,-3.87195 -1.08537,-4.02416 -0.71014,-0.23784 -23.17676,1.03561 -23.55259,1.33501 -0.50653,0.40351 -0.51942,5.96084 -0.015,6.46526 0.42408,0.42408 -0.15187,0.4262 13.68691,-0.0503 z m 28.18077,-1.20687 c 6.14772,-0.2135 11.27016,-0.48067 11.38319,-0.59369 0.20099,-0.201 -0.39523,-5.83872 -0.70205,-6.63825 -0.0854,-0.22247 -0.31352,-0.45982 -0.50702,-0.52744 -0.67942,-0.23744 -23.15606,1.0513 -23.5268,1.34895 -0.39921,0.32051 -0.55569,6.24691 -0.175,6.6276 0.2485,0.2485 0.008,0.25237 13.52768,-0.21717 z m 26.77232,-1.23784 c 8.70552,-0.22972 9.9,-0.35706 9.9,-1.05541 0,-0.67734 -2.28807,-5.98146 -2.81292,-6.52082 -0.29991,-0.30819 -2.17824,-0.26517 -9.80403,0.22458 -5.18818,0.3332 -9.7368,0.67608 -10.10805,0.76196 -0.64876,0.15007 -0.675,0.28224 -0.675,3.40042 0,1.78436 0.10125,3.34825 0.225,3.47532 0.12375,0.12707 1.7775,0.15121 3.675,0.0536 1.8975,-0.0976 6.2175,-0.25043 9.6,-0.33969 z m 32.1249,26.18001 c -7.65006,-19.8421 -14.38689,-37.87761 -14.20866,-38.03857 0.12858,-0.1161 23.31399,-0.26178 51.52314,-0.32375 l 51.28941,-0.11268 3.17826,19.43235 c 1.74804,10.68779 3.11406,19.49654 3.03561,19.575 -0.0785,0.0785 -21.38601,0.14265 -47.35008,0.14265 l -47.20743,0 -0.26025,-0.675 z m 27.02691,-15.75681 c 0.37227,-0.37226 -0.2967,-6.37101 -0.76725,-6.88027 -0.46074,-0.49866 -23.44707,0.25476 -23.97876,0.78594 -0.38565,0.38529 -0.69063,5.41179 -0.37779,6.22699 0.17127,0.44631 1.29072,0.47536 12.51006,0.32465 7.34799,-0.0987 12.43974,-0.28331 12.61374,-0.45731 z m 28.58385,-0.7026 c 0.34227,-0.3198 -0.29019,-6.54013 -0.7074,-6.95732 -0.40674,-0.40675 -23.47872,0.36623 -23.93208,0.8018 -0.41871,0.40231 -0.6537,5.84328 -0.27825,6.44318 0.20817,0.33261 2.38758,0.36611 12.44223,0.19125 6.7044,-0.1166 12.31839,-0.3321 12.4755,-0.47891 z m 24.98934,-0.44104 3.075,-0.18228 -0.006,-1.24614 c -0.01,-2.02209 -0.58332,-5.4157 -0.97824,-5.78689 -0.27504,-0.2585 -3.26445,-0.2413 -12.04668,0.0693 -6.42444,0.22723 -11.78475,0.51706 -11.91177,0.64408 -0.3564,0.3564 -0.3768,6.41807 -0.0222,6.63764 0.36852,0.22828 17.54598,0.12177 21.88998,-0.13573 z m -53.93205,-8.97019 c 0.29184,-0.18037 0.33357,-0.91314 0.17496,-3.07358 -0.11451,-1.56021 -0.2811,-3.02666 -0.37017,-3.25876 -0.13536,-0.35278 -2.09709,-0.42202 -11.95842,-0.42202 -10.32405,0 -11.85531,0.0589 -12.2679,0.47143 -0.37065,0.37067 -0.47142,1.16748 -0.47142,3.728 0,2.79084 0.071,3.27045 0.49635,3.35358 0.96747,0.18906 24.01947,-0.56557 24.3966,-0.79865 z m 15.45705,0.11673 c 7.70115,-0.22778 11.51415,-0.44813 11.75184,-0.67913 0.4263,-0.4143 -0.068,-5.80298 -0.59103,-6.44315 -0.26886,-0.3291 -2.43324,-0.36337 -12.04428,-0.19068 -6.44409,0.11579 -11.838,0.32329 -11.98644,0.46112 -0.31758,0.29484 -0.6411,6.02849 -0.37872,6.7122 0.21657,0.56437 -0.76254,0.55405 13.24863,0.13964 z m 31.07166,-0.59151 c 5.51559,-0.17623 10.14585,-0.43549 10.28946,-0.57612 0.31758,-0.31098 -0.30993,-5.97004 -0.71628,-6.45967 -0.35331,-0.4257 -23.35035,-0.22786 -23.89188,0.20554 -0.3876,0.3102 -0.888,6.30858 -0.56928,6.82425 0.25269,0.4089 2.25312,0.40971 14.88798,0.006 z M 239.37999,470.91901 c 0.36885,-4.28551 0.3521,-4.57689 -0.27016,-4.70059 -0.30103,-0.0598 -0.77353,0.0864 -1.05,0.32502 -1.35211,1.16687 -4.28302,1.43374 -6.97323,0.63494 -3.39305,-1.00749 -6.73581,-4.04972 -9.43417,-8.58597 -1.31098,-2.2039 -3.53693,-7.13854 -3.3186,-7.35688 0.0524,-0.0524 1.09159,0.23916 2.3093,0.64791 1.24698,0.41857 3.65539,0.88928 5.51402,1.07769 5.16809,0.52387 6.54617,0.93692 8.77287,2.62953 1.20655,0.91715 3.14722,3.78412 3.85132,5.68962 0.62793,1.69931 1.03604,2.29423 1.35118,1.96965 0.12695,-0.13074 0.59095,-1.85076 1.03112,-3.82225 0.93529,-4.18904 2.97961,-10.67867 4.65969,-14.79203 0.6511,-1.59409 1.18382,-3.1257 1.18382,-3.40357 0,-0.45137 -0.33167,-0.4883 -3.11092,-0.34646 -2.62364,0.1339 -3.44119,0.0585 -5.2194,-0.48165 -2.34268,-0.71157 -4.95895,-2.51251 -6.65329,-4.57986 -2.33551,-2.84968 -5.58231,-9.34187 -6.48285,-12.96292 l -0.21165,-0.85102 1.17309,0.59847 c 1.91268,0.97578 4.20441,1.50033 8.65502,1.98107 2.31,0.24951 4.89618,0.6619 5.74707,0.91641 3.15286,0.94307 5.7117,3.37968 7.658,7.29223 0.51604,1.03737 1.02496,1.93972 1.13092,2.00521 0.38736,0.2394 0.85325,-0.34366 2.27037,-2.84134 2.06618,-3.64167 5.58588,-8.95224 8.30388,-12.52904 1.28687,-1.69347 2.33976,-3.26277 2.33976,-3.48733 0,-0.3251 -0.54185,-0.37741 -2.65886,-0.2567 -3.20049,0.18248 -6.35871,-0.43386 -9.00879,-1.75813 -3.34401,-1.67102 -6.41157,-5.90491 -8.24002,-11.37301 -1.03003,-3.08034 -2.57826,-11.69579 -2.10179,-11.69579 0.0985,0 0.80466,0.45554 1.56927,1.01233 2.10125,1.53011 3.57989,2.19261 8.54694,3.82938 6.23273,2.05385 8.36318,3.39469 10.3749,6.52968 1.66302,2.5916 3.24125,8.50195 2.82206,10.56844 -0.36186,1.78392 0.66325,1.04513 5.61012,-4.0432 2.8055,-2.88572 6.44759,-6.41959 8.09354,-7.85305 1.64594,-1.43346 2.99263,-2.78856 2.99263,-3.01134 0,-0.23521 -0.47174,-0.48256 -1.125,-0.58988 -2.35215,-0.38643 -5.422,-1.44837 -8.025,-2.77604 -7.20885,-3.67691 -10.71395,-10.55716 -11.41987,-22.41632 -0.18417,-3.09407 0.23817,-10.66418 0.72786,-13.04629 l 0.21509,-1.04629 0.94992,1.38067 c 1.74943,2.54271 4.86822,5.08342 9.85954,8.03203 2.6221,1.54901 5.69106,3.50566 6.81989,4.34813 4.93621,3.68394 7.1014,8.56674 7.19768,16.23175 0.0269,2.145 -0.0554,4.27421 -0.18293,4.73158 -0.4309,1.54509 0.52232,1.21637 4.77267,-1.64585 4.70971,-3.17155 9.50477,-5.97897 14.41174,-8.43781 1.84337,-0.9237 3.45384,-1.8449 3.57882,-2.04712 0.14257,-0.23068 -0.10021,-0.59584 -0.65159,-0.98006 -3.01721,-2.10248 -6.90048,-7.16053 -9.02096,-11.75004 -4.90973,-10.62647 -0.30334,-24.86299 13.22576,-40.87558 l 2.11638,-2.50487 0.0747,1.15487 c 0.37167,5.74456 1.38185,9.00183 5.33575,17.20488 1.70991,3.5475 3.45042,7.47769 3.8678,8.73375 2.43809,7.33715 0.99721,14.61023 -4.54948,22.96414 -0.69302,1.04377 -0.9743,1.7266 -0.78799,1.9129 0.18631,0.18632 1.4087,-0.0878 3.42447,-0.76803 9.33757,-3.15084 20.07892,-5.3362 29.63644,-6.02961 1.83715,-0.13329 2.85231,-0.33516 2.9487,-0.58635 0.0808,-0.2107 -0.13723,-1.02564 -0.48462,-1.81099 -2.29995,-5.19939 -3.00886,-14.83462 -1.51923,-20.64854 2.50323,-9.76993 11.68098,-18.79743 26.55344,-26.11871 4.3382,-2.13557 10.2468,-4.64578 12.66467,-5.38047 0.60605,-0.18415 0.53431,0.0709 -0.81331,2.89205 -2.44703,5.12265 -3.1314,8.97705 -3.58482,20.18986 -0.32245,7.97416 -0.78532,11.25116 -2.09679,14.84467 -1.20228,3.29432 -2.74015,5.71925 -5.37833,8.4806 -2.51133,2.62858 -5.22608,4.73244 -8.22979,6.37787 -3.28532,1.7997 -3.02119,1.91178 6.68837,2.83811 3.5475,0.33845 7.26,0.62192 8.25,0.62994 0.99,0.008 2.4733,0.12499 3.29623,0.25994 0.82293,0.13495 1.63422,0.19242 1.80286,0.1277 0.16864,-0.0647 0.64121,-0.75692 1.05017,-1.53825 1.0686,-2.04163 5.70281,-6.58453 8.85074,-8.67635 9.23305,-6.13542 15.88165,-7.87644 24.94135,-6.5312 8.08902,1.2011 16.63939,4.89503 26.35865,11.38746 5.54958,3.70711 15.45,11.68371 15.45,12.44782 0,0.12363 -1.85625,0.294 -4.125,0.37861 -6.66695,0.24864 -9.91339,1.30958 -22.22379,7.26278 -10.93294,5.28706 -14.67551,6.34745 -21.46629,6.08208 -3.06892,-0.11993 -4.52914,-0.33044 -6.63492,-0.9565 -8.00782,-2.38077 -15.79379,-7.51582 -16.626,-10.96528 -0.70328,-2.91504 -0.59719,-2.7944 -2.93472,-3.33763 -4.2596,-0.98991 -25.63168,-2.24421 -33.08928,-1.94196 -41.23393,1.67117 -80.24759,24.97037 -100.93595,60.27956 -6.10838,10.42528 -10.28866,22.24141 -12.01075,33.95002 -0.26695,1.815 -0.61982,3.435 -0.78416,3.6 -0.16435,0.165 -1.9951,0.34806 -4.06834,0.4068 l -3.76953,0.10679 0.24157,-2.80679 z m 59.55874,-5.57936 c 0.12563,-0.35332 5.23281,-5.29359 20.08382,-19.42743 18.16043,-17.28344 26.3855,-24.75 27.26427,-24.75 0.61425,0 11.17308,8.40237 19.41052,15.44626 7.39479,6.32332 13.01271,11.33936 20.31479,18.13836 3.11024,2.89596 6.35024,5.89274 7.2,6.65951 3.75892,3.39184 0.83472,1.69439 -18.32862,-10.63945 -5.7345,-3.69082 -13.67625,-8.82425 -17.64833,-11.40763 -3.97207,-2.58338 -7.46267,-4.69705 -7.75686,-4.69705 -0.2942,0 -11.35432,6.70628 -24.57804,14.90284 -27.70613,17.17331 -26.11515,16.20661 -25.96155,15.77459 z"
         style="fill:#588a1c" />
    </g>
  </g>
</svg>
